<svg id="Layer_1" data-name="Layer 1" xmlns="http://www.w3.org/2000/svg" viewBox="0 0 505.72 258"><defs><style>.cls-1{fill:#29ad6f;}.cls-2{fill:#00665e;}</style></defs><title>EITMAD</title><path class="cls-1" d="M300.68,209.24l.26,2c2.32,15.13,5.58,25.49,14.67,30.39A20.43,20.43,0,0,0,326,244c7.54-.23,15.91-3.8,23.16-7.13L351,236l5.11-2.41,3.13-1.41c6.82-3.07,14-5.94,20.42-6.13s13.93,2.32,20.46,4.79l3.22,1.22,5.26,2.11,1.91.75c7.55,2.94,16.24,6.07,23.81,5.84a20.24,20.24,0,0,0,10.25-2.91c9.77-6.05,11.72-19,12.89-31.81l.11-2,.52-5.63.32-3.41c.71-7.44,1.75-15.07,4.64-20.42,2.65-4.91,7.85-9.58,14.84-15.08l2.77-2.18,4.4-3.39,1.56-1.25c11.67-9.32,19.38-17.71,19.06-28.39-.33-11.28-10-19.65-20.46-27l-1.56-1.1-4.78-3.26-2.77-1.92c-7.46-5.17-13-9.6-16-14.36-3.25-5.24-4.78-13.06-5.95-20.73l-.51-3.36L453,47.17l-.35-2.3c-1.91-12.4-4.62-25-14.68-30.38a20.24,20.24,0,0,0-10.4-2.29c-7.54.22-15.91,3.79-23.16,7.12l-1.68.74-5.28,2.52L394.28,24c-6.82,3.07-14,5.94-20.42,6.13s-13.94-2.31-20.47-4.79l-3.21-1.22L344.94,22,343,21.27c-7.55-2.94-16.25-6.07-23.83-5.84A20.29,20.29,0,0,0,309,18.33c-9.77,6.05-11.73,19-12.89,31.83L295.38,58l-.27,3.24c-.7,7.44-1.75,15.06-4.65,20.43-2.64,4.9-7.84,9.58-14.83,15.08L273,98.8l-4.45,3.44-1.62,1.29c-11.67,9.32-19.39,17.71-19.07,28.4.34,11.27,10,19.65,20.47,27l1.72,1.22,4.61,3.13,2.78,1.93c7.45,5.17,13,9.58,16,14.35,3.26,5.26,4.78,13.07,5.95,20.73l.51,3.36ZM380.6,257h0m-33-25.52h0l-3.14,1.4c-5.92,2.64-12.77,5.37-18.62,5.54a14.69,14.69,0,0,1-7.62-1.63c-8.78-4.74-10.76-18.64-12.67-32.07-1.44-10.2-2.94-20.74-7.48-28.08-4-6.41-11.51-11.87-19.55-17.37l-1.75-1.2L272.13,155l-2.74-2c-7.79-5.68-15.8-12.64-16-21.2-.32-10.57,11-19.33,22-27.8,7.92-6.13,16.12-12.46,20-19.7,3.7-6.86,4.76-16.2,5.53-25.18L301,57l.44-5.6.36-3.42c1.08-10.41,3.05-20.65,10-25a14.71,14.71,0,0,1,7.51-2.09c7.35-.22,16.61,3.46,25.63,7,9.81,3.9,20,7.94,29,7.67,8.14-.24,16.8-3.95,25-7.73l1.89-.87L406,24.62l3.1-1.38c5.92-2.64,12.76-5.36,18.61-5.54a14.64,14.64,0,0,1,7.61,1.64C444.11,24.07,446.09,38,448,51.4c1.44,10.2,2.94,20.75,7.48,28.08,4,6.4,11.5,11.87,19.54,17.37l1.58,1.08,4.81,3.28,2.74,2c7.8,5.67,15.8,12.63,16.06,21.19.31,10.57-11,19.32-21.95,27.8-7.92,6.12-16.11,12.45-20,19.71-3.7,6.85-4.76,16.19-5.53,25.17l-.18,2.07-.48,6-.31,3c-1.08,10.4-3.05,20.63-10,25a14.64,14.64,0,0,1-7.51,2.08c-7.35.22-16.6-3.45-25.63-7-9.81-3.9-20-7.94-29-7.67-8.14.24-16.8,3.95-25,7.73l-1.89.87m96-23.8"/><path class="cls-1" d="M269.91,159.94l-.83,1.89c-5.72,14.19-8.2,24.77-2.89,33.62a20.35,20.35,0,0,0,7.77,7.28c6.59,3.65,15.61,4.85,23.55,5.69l2,.22,5.63.53,3.41.39c7.43.84,15.08,2.05,20.69,5.15s10.79,9.1,15.15,14.57l2.14,2.69,3.44,4.5,1.27,1.61c5,6.39,10.86,13.51,17.49,17.19A20.42,20.42,0,0,0,379.06,258c11.49-.22,19.8-10.38,27.32-20.77l1.14-1.7,3.32-4.57,2-2.77c4.4-6,9.2-12.06,14.42-15.19,4.77-2.87,11.63-4.23,20.46-5.39l3.49-.46,5.51-.67,2-.28c14.79-2,25.71-5.33,30.89-14.68,5.47-9.86,1.4-22-3.81-33.68L485,156.1l-2.44-5.24-1.4-3.07c-3.78-8.25-6.31-14.9-6.41-20.5-.11-6.16,2.56-13.67,5.47-20.86l1.27-3.15,2.09-5,.87-2.16c4.69-11.64,8.77-23.82,2.89-33.62a20.35,20.35,0,0,0-7.77-7.28C473,51.61,464,50.42,456,49.58l-1.82-.22-5.83-.53L445,48.44c-7.43-.84-15.09-2-20.7-5.15s-10.8-9.11-15.15-14.57L407,26l-3.44-4.48-1.26-1.62c-5-6.39-10.87-13.52-17.5-17.2A20.45,20.45,0,0,0,374.49,0c-11.5.22-19.81,10.39-27.33,20.79l-4.58,6.37-1.89,2.65c-4.4,6-9.19,12.06-14.42,15.19-4.78,2.87-11.63,4.23-20.46,5.39l-3.35.44-5.58.68-2,.29c-14.8,2-25.72,5.33-30.9,14.68-5.47,9.86-1.4,22,3.8,33.68l.86,1.92,2.37,5.06,1.4,3.07c3.77,8.25,6.3,14.89,6.41,20.5.11,6.18-2.56,13.68-5.47,20.86L272,154.71Zm44.32,81.9h0m-15.36-38.8h0l-3.41-.4c-6.45-.75-13.72-1.91-18.84-4.74a14.78,14.78,0,0,1-5.72-5.29c-5.13-8.57.26-21.52,5.48-34.05,4-9.51,8.06-19.34,7.9-28-.14-7.54-3.84-16.09-7.94-24.92l-.9-1.93-2.37-5.08-1.34-3.11c-3.8-8.87-7.13-18.94-3-26.42,5.12-9.25,19.33-11,33.07-12.7,9.94-1.22,20.22-2.49,27.27-6.72,6.68-4,12.36-11.5,17.61-18.83l1.21-1.69,3.23-4.59,2.05-2.76c6.25-8.4,13.16-16.2,21.39-16.35a14.76,14.76,0,0,1,7.52,2c6.43,3.57,12.52,11.46,18.44,19.14,6.45,8.37,13.12,17,21.05,21.42,7.12,3.94,16.46,5.18,25.41,6.1l2.07.22,5.64.53,3.38.39c6.44.75,13.7,1.9,18.82,4.74a14.73,14.73,0,0,1,5.72,5.3c5.14,8.56-.26,21.51-5.48,34-4,9.51-8.06,19.34-7.9,28,.14,7.53,3.83,16.08,7.93,24.91L478,154l2.47,5.27,1.34,3.12c3.8,8.86,7.13,18.93,3,26.43-5.12,9.24-19.31,11-33.07,12.69-9.93,1.22-20.21,2.48-27.27,6.72-6.68,4-12.36,11.5-17.61,18.83l-1.2,1.69-3.51,5-1.79,2.41c-6.25,8.4-13.16,16.18-21.38,16.34a14.86,14.86,0,0,1-7.52-2C365,246.88,358.93,239,353,231.31c-6.45-8.37-13.11-17-21.05-21.42-7.12-3.95-16.46-5.18-25.41-6.1l-2.07-.21m94.71,28.55"/><path class="cls-1" d="M366.67,171l37.4-37.4a6.53,6.53,0,0,0,0-9.25l-8.44-8.44a6.53,6.53,0,0,0-9.24,0l-29,29a6.57,6.57,0,0,0-1.91,4.62v16.88A6.53,6.53,0,0,0,366.67,171Z"/><path class="cls-2" d="M355.57,91.63v16.88a6.52,6.52,0,0,0,1.92,4.62L373.32,129,391,146.66,408.7,129l-42-42A6.53,6.53,0,0,0,355.57,91.63Z"/><path class="cls-2" d="M.09,114.51H21.78q-.21-8.83-4.23-14.07T4.63,92.62l2-6.46q11.69,3.34,17.08,10.28,5.67,7.35,5.67,20.16v4H.09Z"/><polygon class="cls-2" points="39.62 71.26 47.3 71.26 47.3 114.51 54.72 114.51 54.72 120.59 39.62 120.59 39.62 71.26"/><rect class="cls-2" x="53.66" y="114.51" width="27.93" height="6.08"/><path class="cls-2" d="M107.28,120.6q-11.9,0-16-6.09-1.95,6.09-10.9,6.09H79.36v-6.09q4.17,0,6.12-2.11c1.52-1.64,2.29-4.46,2.29-8.44A16.66,16.66,0,0,1,92.24,92q4.89-5.15,13.29-5.15,15.41,0,15.41,15.81v11.82h6.49v6.09Zm6.14-16.71Q113.42,93,105,93a8.84,8.84,0,0,0-7,3,11.17,11.17,0,0,0-2.53,7.65q0,10.94,11.76,10.93h6.21Z"/><path class="cls-2" d="M126.34,114.51h10V87.7H144v26.81h6.79v6.09H126.34Zm4.34-33.95a4.16,4.16,0,0,1-1.2-3,4.06,4.06,0,0,1,1.2-2.94,3.84,3.84,0,0,1,2.87-1.23,3.89,3.89,0,0,1,2.94,1.23,4.26,4.26,0,0,1,0,5.91,4.09,4.09,0,0,1-5.81,0m10.86,0a4.31,4.31,0,0,1,0-6,4.08,4.08,0,0,1,5.84,0,4.24,4.24,0,0,1,0,5.91,3.91,3.91,0,0,1-2.93,1.23,4,4,0,0,1-2.91-1.19"/><path class="cls-2" d="M149.77,114.51H162q-6.56-3.24-6.55-11.48a15.4,15.4,0,0,1,4.37-11.34q4.81-4.81,13.32-4.81a26.38,26.38,0,0,1,9,1.46l-1.4,6.15a18.76,18.76,0,0,0-7.82-1.6,9.4,9.4,0,0,0-7,2.66,10.69,10.69,0,0,0,1.43,15.62c3,2.23,7.42,3.34,13.26,3.34h5.6v6.09H149.77Z"/><rect class="cls-2" x="195.35" y="71.26" width="7.69" height="49.33"/><polygon class="cls-2" points="0 186.05 0 138.84 24.91 138.84 24.91 145.19 7.62 145.19 7.62 158.62 24.09 158.62 24.09 164.84 7.62 164.84 7.62 179.56 24.91 179.56 24.91 186.05 0 186.05"/><path class="cls-2" d="M52.17,185.85a32.37,32.37,0,0,1-7.28.82c-3.67,0-6.2-.8-7.62-2.39s-2-4.29-2-8.24v-19H28.6v-5.8h6.66v-11l7.48-2.05v13.09h9.09v5.8H42.74v16.68q0,3.86,1,5.22c.63.89,1.83,1.34,3.58,1.34a20.18,20.18,0,0,0,4.27-.48Z"/><path class="cls-2" d="M67.13,143.76a4.63,4.63,0,0,1-3.35,1.37,4.77,4.77,0,0,1-3.41-1.37,4.36,4.36,0,0,1-1.4-3.31,4.44,4.44,0,0,1,1.4-3.32,4.71,4.71,0,0,1,3.41-1.4,4.58,4.58,0,0,1,3.35,1.4,4.41,4.41,0,0,1,1.44,3.32,4.46,4.46,0,0,1-1.44,3.31M60,151.27h7.48v34.78H60Z"/><path class="cls-2" d="M121.11,186.05V163.88q0-7.06-5-7.07-3.56,0-6.15,3.45a14.71,14.71,0,0,0-2.8,9.22v16.57H99.79V163.88q0-7.06-5.05-7.07-3.63,0-6.22,3.59a15,15,0,0,0-2.67,9.08v16.57H78.37V151.28h7.14a43,43,0,0,1-.48,6.86l.14.07q3.35-7.62,11.75-7.62t9.64,7.49q3.34-7.49,11.61-7.49,10.35,0,10.35,11.48v24Z"/><path class="cls-2" d="M157.84,186.05a43.14,43.14,0,0,1,.37-6.42l-.06-.07q-2.94,7.19-11.55,7.18a9.55,9.55,0,0,1-7.11-2.7,9.4,9.4,0,0,1-2.63-6.94q0-5.81,5.47-8.95t15-3.07v-1.47q0-3.8-1.5-5.47t-5.37-1.74A25.49,25.49,0,0,0,140,158.83L138.67,153a34.57,34.57,0,0,1,12.88-2.43q7.27,0,10.46,3.25c1.89,1.93,2.83,4.91,2.83,8.91v13.77q0,5.13.21,9.53Zm-.48-16q-13.22,0-13.22,6.08a4.61,4.61,0,0,0,1.26,3.35,4.71,4.71,0,0,0,3.49,1.33,7.56,7.56,0,0,0,6.11-3,10.56,10.56,0,0,0,2.36-6.8Z"/><path class="cls-2" d="M196.85,186.05a36,36,0,0,1,.51-6.49h-.13q-3.21,7.19-11.34,7.18c-4.19,0-7.4-1.47-9.6-4.41s-3.22-6.81-3.22-12q0-9,4.89-14.31t13.29-5.33c1,0,2.73.09,5.26.27V135h7.41v51.07Zm-.34-28.76a26,26,0,0,0-5.53-.62q-10,0-10,13,0,10.89,6.93,10.9c2.62,0,4.75-1.35,6.39-4a15.91,15.91,0,0,0,2.22-8.48Z"/></svg>