<!--?xml version="1.0" encoding="utf-8"?-->
<!-- Generator: Adobe Illustrator 22.0.1, SVG Export Plug-In . SVG Version: 6.00 Build 0)  -->
<svg version="1.1" id="Layer_1" xmlns="http://www.w3.org/2000/svg" xmlns:xlink="http://www.w3.org/1999/xlink" x="0px" y="0px" viewBox="0 0 274 274" style="" xml:space="preserve" class="">
<style type="text/css">
	.st0{fill:#00594D;}
	.st1{fill:none;stroke:#29AD6F;stroke-width:4;stroke-miterlimit:10;}
</style>
<g>
	<path class="st0 uJaaFzHp_0 hQxoeFFO_0" d="M76.9,128.9c-2.2,0-4.2,0.4-5.8,1.3c-0.3,0.2-0.5,0.6-0.5,1l0.2,1.8c0.1,0.6,0.6,1,1.2,0.8
		c1.1-0.3,2.2-0.5,3.5-0.5c1.8,0,3.1,0.8,4.1,2.3c1,1.5,1.5,3.6,1.5,6.3c0,2.8-0.4,4.9-1.1,6.1c-0.9,1.5-2.5,2.2-4.7,2.2h-5.8
		c-0.5,0-0.9,0.4-0.9,1v3.1c0,0.5,0.4,1,0.9,1h7.1c2.8,0,5-0.6,6.5-1.8c2.6-2,3.9-5.9,3.9-11.5c0-4.2-1-7.4-2.9-9.7
		C82.3,130,79.9,128.9,76.9,128.9z"></path>
	<path class="st0 uJaaFzHp_1 hQxoeFFO_1" d="M181.4,128.9c-4.1,0-7.5,0.6-10.2,1.7c-0.3,0.1-0.5,0.4-0.5,0.7v18.9l-6,0l-3.3,0c-2.9,0-4.3-1.7-4.3-5.2
		v-14.8c0-0.7-0.5-1.2-1.2-1.2h-3.5c-0.6,0-1.2,0.5-1.2,1.2v15.3c0,1.3-0.4,2.4-1.1,3.3c-0.8,0.9-1.9,1.4-3.3,1.4l-4.9,0
		c-1.8,0-4.3-0.1-5-0.5c-0.9-0.4-1.3-1.4-1.3-2.8c0-0.2,0.1-1,0.2-2.3c0.1-0.8,0.1-1.5,0.1-2.1c0-4-0.9-7.1-2.6-9.4
		c-1.9-2.5-4.6-3.8-8.1-3.8c-3.5,0-6.2,1.3-8.1,3.8c-1.8,2.3-2.6,5.5-2.6,9.4c0,0.6,0,1.3,0.1,2.1c0.1,1.3,0.2,2.1,0.2,2.3
		c0,1.4-0.4,2.3-1.3,2.8c-0.7,0.3-1.9,0.5-3.8,0.5l-1.6,0.1l-2.6,0.1c-2.9,0-4.3-1.5-4.3-4.5v-26.2c0-0.6-0.6-1.2-1.3-1.2h-3.7
		c-0.7,0-1.3,0.5-1.3,1.2v27.7c0,2.8,0.9,4.8,2.6,6.1c1.7,1.3,4.4,1.9,8.1,1.9l2.5-0.1l2.7-0.1c3.1,0,5.4-1,6.6-2.9
		c1.9,2.3,4.5,3.4,7.8,3.4c3.3,0,5.9-1.1,7.8-3.4c1.3,1.9,3.5,2.9,6.6,2.9l2.4,0.1l5.1,0.1c0.4,0,0.8,0,1.2,0c0.1,0,0.1,0,0.2,0
		h11.3c0.1,0,0.1,0,0.2,0c0.4,0,0.9,0,1.3,0h3.4h20.3c0.8,0,1.5-0.6,1.5-1.4v-3.7h-9.5v-16.8c1.3-0.5,2.7-0.7,4.2-0.7
		s2.7,0.4,3.6,1.2c0.9,0.9,1.4,2.9,1.4,6c0,1.8-0.3,3.8-0.8,6.1h6.2c0.6-2.1,0.9-4.4,0.9-6.7c0-3.2-0.5-5.4-1.5-6.8
		C189,130.1,185.9,128.9,181.4,128.9z M125.2,151.7c-3.3,0-5-3.1-5-9.3c0-6.3,1.7-9.5,5-9.5c3.3,0,5,3.2,5,9.5
		C130.1,148.6,128.5,151.7,125.2,151.7z"></path>
	<path class="st0 uJaaFzHp_2 hQxoeFFO_2" d="M204.3,118.4h-2.9c-0.6,0-1.2,0.6-1.2,1.3V154c0,0.7,0.5,1.3,1.2,1.3h2.9c0.6,0,1.2-0.6,1.2-1.3v-34.3
		C205.5,119,205,118.4,204.3,118.4z"></path>
</g>
<path class="st1 uJaaFzHp_3 hQxoeFFO_3" d="M54.5,61.5l-0.4,3.4c-1,7.7-2.3,15.6-5.5,21.1c-2.9,5-8.5,9.7-15.9,15.2l-2.8,2.1l-4.7,3.4l-1.7,1.3
	C11,117.4,2.7,125.9,2.7,137c0,11.7,9.8,20.8,20.5,28.8l1.7,1.3l4.7,3.4l2.8,2.1C40,178.2,45.7,183,48.6,188
	c3.2,5.6,4.6,13.7,5.5,21.8l0.4,3.5l0.7,5.8l0.2,2.1c1.9,15.8,5,26.7,14.3,32.1c3.1,1.8,6.7,2.7,10.7,2.7c7.9,0,16.7-3.5,24.3-6.7
	l2-0.8l5.4-2.4l3.3-1.4c7.2-3,14.8-5.7,21.4-5.7c6.7,0,14.4,2.8,21.1,5.6l3.3,1.4l5.4,2.4l2,0.8c7.8,3.3,16.7,6.8,24.6,6.8
	c4,0,7.6-0.9,10.8-2.7c10.4-6,12.8-19.4,14.4-32.7l0.2-2.1l0.7-5.8l0.4-3.5c1-7.7,2.3-15.6,5.5-21.1c2.9-5,8.5-9.7,15.9-15.2
	l2.9-2.2l4.7-3.4l1.7-1.3c12.4-9.3,20.7-17.8,20.7-29c0-11.7-9.8-20.8-20.5-28.8l-1.6-1.2l-4.9-3.5l-2.8-2.1
	C234,95.8,228.3,91,225.4,86c-3.2-5.6-4.6-13.7-5.5-21.8l-0.4-3.5l-0.6-5.6l-0.3-2.4c-1.6-13-4-26.1-14.3-32.1
	c-3.1-1.8-6.7-2.7-10.8-2.7c-7.9,0-16.7,3.5-24.3,6.7l-1.8,0.7l-5.6,2.5l-3.3,1.4c-7.2,3-14.8,5.8-21.5,5.8
	c-6.7,0-14.4-2.8-21.2-5.6l-3.3-1.4l-5.4-2.3l-2-0.8C97.4,21.5,88.5,18,80.6,18c-4,0-7.7,0.9-10.8,2.7c-10.4,6-12.8,19.5-14.4,32.7
	l-0.3,2.1L54.5,61.5z"></path>
<path class="st1 uJaaFzHp_4 hQxoeFFO_4" d="M197.3,51.9c-3.7-0.8-6.8-1.9-9.3-3.3c-5.6-3.2-10.8-9.6-15.7-16.1l-2.1-2.8l-3.3-4.5l-1.5-1.9
	c-7.9-10.4-16.6-20.6-28.5-20.6c-3.6,0-7.2,1-10.7,3c-6.8,3.9-12.7,11.3-17.7,18l-1.4,2"></path>
<path class="st1 uJaaFzHp_5 hQxoeFFO_5" d="M93.4,42.7c-2.4,2.4-4.9,4.5-7.5,6C80.2,52,72,53.4,64.8,54.4l-3.5,0.5l-5.8,0.7l-2.1,0.3
	c-8.4,1-17.9,2.5-24.7,6.4c-3.5,2-6.2,4.6-8,7.7c-6,10.4-1.3,23.2,3.9,35.5l0.6,1.3"></path>
<path class="st1 uJaaFzHp_6 hQxoeFFO_6" d="M33.2,126.9c1.1,3.6,1.8,7,1.8,10.2c0,5.8-2.5,12.7-6.1,21.2l-1.4,3.2l-2.4,5.4l-0.8,2
	c-6.1,14.3-9,25.8-3.5,35.5c5.9,10.2,18.9,13.1,32.1,14.7l2.5,0.3"></path>
<path class="st1 uJaaFzHp_7 hQxoeFFO_7" d="M76.8,222.1c3.6,0.8,6.7,1.9,9.2,3.3c5.6,3.2,10.8,9.6,15.7,16.1l2.1,2.8l3.5,4.7l1.3,1.8
	c9.6,12.7,17.7,20.6,28.5,20.6c3.6,0,7.2-1,10.7-3c6.8-3.9,12.7-11.3,17.7-18l1.4-1.9"></path>
<path class="st1 uJaaFzHp_8 hQxoeFFO_8" d="M180.7,231.3c2.4-2.4,4.8-4.4,7.4-5.9c5.8-3.3,13.9-4.8,21.1-5.7l3.6-0.5l5.9-0.7l2.1-0.3
	c8.4-1,17.9-2.5,24.7-6.4c3.5-2,6.2-4.6,8-7.7c6-10.4,1.3-23.2-3.9-35.5l-0.5-1"></path>
<path class="st1 uJaaFzHp_9 hQxoeFFO_9" d="M240.8,147.1c-1.1-3.6-1.8-7-1.8-10.2c0-5.8,2.5-12.7,6.2-21.2l1.5-3.4l2.4-5.3l0.8-1.9
	c6.1-14.3,9-25.8,3.5-35.4c-5.9-10.2-18.9-13.1-32.1-14.7l-2.3-0.3"></path>
<path class="st0 uJaaFzHp_10 hQxoeFFO_10" d="M158.9,121.3c0.5,0,0.9-0.4,0.9-0.8v-3.6c0-0.5-0.4-0.8-0.9-0.8h-11.3c-0.5,0-0.9,0.4-0.9,0.8v3.6
	c0,0.5,0.4,0.8,0.9,0.8H158.9z"></path>
<style>.uJaaFzHp_0{stroke-dasharray:95 97;stroke-dashoffset:96;}.start .uJaaFzHp_0{animation:uJaaFzHp_draw_0 7200ms ease-in-out 0ms infinite,uJaaFzHp_fade 7200ms linear 0ms infinite;}.uJaaFzHp_1{stroke-dasharray:463 465;stroke-dashoffset:464;}.start .uJaaFzHp_1{animation:uJaaFzHp_draw_1 7200ms ease-in-out 0ms infinite,uJaaFzHp_fade 7200ms linear 0ms infinite;}.uJaaFzHp_2{stroke-dasharray:83 85;stroke-dashoffset:84;}.start .uJaaFzHp_2{animation:uJaaFzHp_draw_2 7200ms ease-in-out 0ms infinite,uJaaFzHp_fade 7200ms linear 0ms infinite;}.uJaaFzHp_3{stroke-dasharray:848 850;stroke-dashoffset:849;}.start .uJaaFzHp_3{animation:uJaaFzHp_draw_3 7200ms ease-in-out 0ms infinite,uJaaFzHp_fade 7200ms linear 0ms infinite;}.uJaaFzHp_4{stroke-dasharray:120 122;stroke-dashoffset:121;}.start .uJaaFzHp_4{animation:uJaaFzHp_draw_4 7200ms ease-in-out 0ms infinite,uJaaFzHp_fade 7200ms linear 0ms infinite;}.uJaaFzHp_5{stroke-dasharray:119 121;stroke-dashoffset:120;}.start .uJaaFzHp_5{animation:uJaaFzHp_draw_5 7200ms ease-in-out 0ms infinite,uJaaFzHp_fade 7200ms linear 0ms infinite;}.uJaaFzHp_6{stroke-dasharray:121 123;stroke-dashoffset:122;}.start .uJaaFzHp_6{animation:uJaaFzHp_draw_6 7200ms ease-in-out 0ms infinite,uJaaFzHp_fade 7200ms linear 0ms infinite;}.uJaaFzHp_7{stroke-dasharray:120 122;stroke-dashoffset:121;}.start .uJaaFzHp_7{animation:uJaaFzHp_draw_7 7200ms ease-in-out 0ms infinite,uJaaFzHp_fade 7200ms linear 0ms infinite;}.uJaaFzHp_8{stroke-dasharray:119 121;stroke-dashoffset:120;}.start .uJaaFzHp_8{animation:uJaaFzHp_draw_8 7200ms ease-in-out 0ms infinite,uJaaFzHp_fade 7200ms linear 0ms infinite;}.uJaaFzHp_9{stroke-dasharray:121 123;stroke-dashoffset:122;}.start .uJaaFzHp_9{animation:uJaaFzHp_draw_9 7200ms ease-in-out 0ms infinite,uJaaFzHp_fade 7200ms linear 0ms infinite;}.uJaaFzHp_10{stroke-dasharray:36 38;stroke-dashoffset:37;}.start .uJaaFzHp_10{animation:uJaaFzHp_draw_10 7200ms ease-in-out 0ms infinite,uJaaFzHp_fade 7200ms linear 0ms infinite;}@keyframes uJaaFzHp_draw{100%{stroke-dashoffset:0;}}@keyframes uJaaFzHp_fade{0%{stroke-opacity:1;}94.44444444444444%{stroke-opacity:1;}100%{stroke-opacity:0;}}@keyframes uJaaFzHp_draw_0{11.11111111111111%{stroke-dashoffset: 96}12.884160756501181%{ stroke-dashoffset: 0;}100%{ stroke-dashoffset: 0;}}@keyframes uJaaFzHp_draw_1{12.884160756501181%{stroke-dashoffset: 464}21.45390070921986%{ stroke-dashoffset: 0;}100%{ stroke-dashoffset: 0;}}@keyframes uJaaFzHp_draw_2{21.45390070921986%{stroke-dashoffset: 84}23.00531914893617%{ stroke-dashoffset: 0;}100%{ stroke-dashoffset: 0;}}@keyframes uJaaFzHp_draw_3{23.00531914893617%{stroke-dashoffset: 849}38.685726950354606%{ stroke-dashoffset: 0;}100%{ stroke-dashoffset: 0;}}@keyframes uJaaFzHp_draw_4{38.685726950354606%{stroke-dashoffset: 121}40.92050827423168%{ stroke-dashoffset: 0;}100%{ stroke-dashoffset: 0;}}@keyframes uJaaFzHp_draw_5{40.92050827423168%{stroke-dashoffset: 120}43.136820330969265%{ stroke-dashoffset: 0;}100%{ stroke-dashoffset: 0;}}@keyframes uJaaFzHp_draw_6{43.136820330969265%{stroke-dashoffset: 122}45.39007092198582%{ stroke-dashoffset: 0;}100%{ stroke-dashoffset: 0;}}@keyframes uJaaFzHp_draw_7{45.39007092198582%{stroke-dashoffset: 121}47.62485224586288%{ stroke-dashoffset: 0;}100%{ stroke-dashoffset: 0;}}@keyframes uJaaFzHp_draw_8{47.62485224586288%{stroke-dashoffset: 120}49.84116430260047%{ stroke-dashoffset: 0;}100%{ stroke-dashoffset: 0;}}@keyframes uJaaFzHp_draw_9{49.841164302600475%{stroke-dashoffset: 122}52.09441489361703%{ stroke-dashoffset: 0;}100%{ stroke-dashoffset: 0;}}@keyframes uJaaFzHp_draw_10{52.09441489361703%{stroke-dashoffset: 37}52.77777777777778%{ stroke-dashoffset: 0;}100%{ stroke-dashoffset: 0;}}</style><style>.hQxoeFFO_0{stroke-dasharray:95 97;stroke-dashoffset:96;animation:hQxoeFFO_draw_0 1810ms ease-in-out 0ms infinite,hQxoeFFO_fade 1810ms linear 0ms infinite;}.hQxoeFFO_1{stroke-dasharray:463 465;stroke-dashoffset:464;animation:hQxoeFFO_draw_1 1810ms ease-in-out 0ms infinite,hQxoeFFO_fade 1810ms linear 0ms infinite;}.hQxoeFFO_2{stroke-dasharray:83 85;stroke-dashoffset:84;animation:hQxoeFFO_draw_2 1810ms ease-in-out 0ms infinite,hQxoeFFO_fade 1810ms linear 0ms infinite;}.hQxoeFFO_3{stroke-dasharray:848 850;stroke-dashoffset:849;animation:hQxoeFFO_draw_3 1810ms ease-in-out 0ms infinite,hQxoeFFO_fade 1810ms linear 0ms infinite;}.hQxoeFFO_4{stroke-dasharray:120 122;stroke-dashoffset:121;animation:hQxoeFFO_draw_4 1810ms ease-in-out 0ms infinite,hQxoeFFO_fade 1810ms linear 0ms infinite;}.hQxoeFFO_5{stroke-dasharray:119 121;stroke-dashoffset:120;animation:hQxoeFFO_draw_5 1810ms ease-in-out 0ms infinite,hQxoeFFO_fade 1810ms linear 0ms infinite;}.hQxoeFFO_6{stroke-dasharray:121 123;stroke-dashoffset:122;animation:hQxoeFFO_draw_6 1810ms ease-in-out 0ms infinite,hQxoeFFO_fade 1810ms linear 0ms infinite;}.hQxoeFFO_7{stroke-dasharray:120 122;stroke-dashoffset:121;animation:hQxoeFFO_draw_7 1810ms ease-in-out 0ms infinite,hQxoeFFO_fade 1810ms linear 0ms infinite;}.hQxoeFFO_8{stroke-dasharray:119 121;stroke-dashoffset:120;animation:hQxoeFFO_draw_8 1810ms ease-in-out 0ms infinite,hQxoeFFO_fade 1810ms linear 0ms infinite;}.hQxoeFFO_9{stroke-dasharray:121 123;stroke-dashoffset:122;animation:hQxoeFFO_draw_9 1810ms ease-in-out 0ms infinite,hQxoeFFO_fade 1810ms linear 0ms infinite;}.hQxoeFFO_10{stroke-dasharray:36 38;stroke-dashoffset:37;animation:hQxoeFFO_draw_10 1810ms ease-in-out 0ms infinite,hQxoeFFO_fade 1810ms linear 0ms infinite;}@keyframes hQxoeFFO_draw{100%{stroke-dashoffset:0;}}@keyframes hQxoeFFO_fade{0%{stroke-opacity:1;}83.42541436464089%{stroke-opacity:1;}100%{stroke-opacity:0;}}@keyframes hQxoeFFO_draw_0{0.5524861878453038%{stroke-dashoffset: 96}37.38489871086556%{ stroke-dashoffset: 0;}100%{ stroke-dashoffset: 0;}}@keyframes hQxoeFFO_draw_1{2.3941068139963164%{stroke-dashoffset: 464}39.22651933701658%{ stroke-dashoffset: 0;}100%{ stroke-dashoffset: 0;}}@keyframes hQxoeFFO_draw_2{4.235727440147329%{stroke-dashoffset: 84}41.06813996316759%{ stroke-dashoffset: 0;}100%{ stroke-dashoffset: 0;}}@keyframes hQxoeFFO_draw_3{6.077348066298342%{stroke-dashoffset: 849}42.9097605893186%{ stroke-dashoffset: 0;}100%{ stroke-dashoffset: 0;}}@keyframes hQxoeFFO_draw_4{7.918968692449354%{stroke-dashoffset: 121}44.751381215469614%{ stroke-dashoffset: 0;}100%{ stroke-dashoffset: 0;}}@keyframes hQxoeFFO_draw_5{9.760589318600365%{stroke-dashoffset: 120}46.59300184162063%{ stroke-dashoffset: 0;}100%{ stroke-dashoffset: 0;}}@keyframes hQxoeFFO_draw_6{11.60220994475138%{stroke-dashoffset: 122}48.434622467771646%{ stroke-dashoffset: 0;}100%{ stroke-dashoffset: 0;}}@keyframes hQxoeFFO_draw_7{13.443830570902392%{stroke-dashoffset: 121}50.27624309392266%{ stroke-dashoffset: 0;}100%{ stroke-dashoffset: 0;}}@keyframes hQxoeFFO_draw_8{15.285451197053405%{stroke-dashoffset: 120}52.117863720073665%{ stroke-dashoffset: 0;}100%{ stroke-dashoffset: 0;}}@keyframes hQxoeFFO_draw_9{17.127071823204417%{stroke-dashoffset: 122}53.959484346224684%{ stroke-dashoffset: 0;}100%{ stroke-dashoffset: 0;}}@keyframes hQxoeFFO_draw_10{18.96869244935543%{stroke-dashoffset: 37}55.80110497237569%{ stroke-dashoffset: 0;}100%{ stroke-dashoffset: 0;}}</style></svg>
