<?xml version="1.0" encoding="utf-8"?>
<!-- Generator: Adobe Illustrator 22.0.1, SVG Export Plug-In . SVG Version: 6.00 Build 0)  -->
<svg version="1.1" id="Layer_1" xmlns="http://www.w3.org/2000/svg" xmlns:xlink="http://www.w3.org/1999/xlink" x="0px" y="0px"
	 viewBox="0 0 100 1080" style="enable-background:new 0 0 1920 1080;" xml:space="preserve">
<style type="text/css">
	.st0{fill:#29AD6F;}
	.st1{fill:#00665E;}
</style>
<g>
	<g>
		<path class="st0" d="M1007.7,620l0.3,2.1c2.3,15.1,5.6,25.5,14.7,30.4c3,1.6,6.5,2.4,10.4,2.3c7.5-0.2,15.9-3.8,23.2-7.1l1.9-0.9
			l5.1-2.4l3.1-1.4c6.8-3.1,14-5.9,20.4-6.1c6.4-0.2,13.9,2.3,20.5,4.8l3.2,1.2l5.3,2.1l1.9,0.7c7.6,2.9,16.2,6.1,23.8,5.8
			c3.9-0.1,7.3-1.1,10.2-2.9c9.8-6,11.7-19,12.9-31.8l0.1-2l0.5-5.6l0.3-3.4c0.7-7.4,1.8-15.1,4.6-20.4c2.6-4.9,7.8-9.6,14.8-15.1
			l2.8-2.2l4.4-3.4l1.6-1.2c11.7-9.3,19.4-17.7,19.1-28.4c-0.3-11.3-10-19.7-20.5-27l-1.6-1.1l-4.8-3.3l-2.8-1.9
			c-7.5-5.2-13-9.6-16-14.4c-3.2-5.2-4.8-13.1-5.9-20.7l-0.5-3.4l-0.7-5.3l-0.4-2.3c-1.9-12.4-4.6-25-14.7-30.4
			c-3-1.6-6.5-2.4-10.4-2.3c-7.5,0.2-15.9,3.8-23.2,7.1l-1.7,0.7l-5.3,2.5l-3.1,1.4c-6.8,3.1-14,5.9-20.4,6.1
			c-6.4,0.2-13.9-2.3-20.5-4.8l-3.2-1.2l-5.2-2.1l-1.9-0.7c-7.6-2.9-16.3-6.1-23.8-5.8c-3.9,0.1-7.3,1.1-10.2,2.9
			c-9.8,6.1-11.7,19-12.9,31.8l-0.7,7.8l-0.3,3.2c-0.7,7.4-1.8,15.1-4.6,20.4c-2.6,4.9-7.8,9.6-14.8,15.1l-2.7,2.1l-4.5,3.4
			l-1.6,1.3c-11.7,9.3-19.4,17.7-19.1,28.4c0.3,11.3,10,19.7,20.5,27l1.7,1.2l4.6,3.1l2.8,1.9c7.5,5.2,13,9.6,16,14.4
			c3.3,5.3,4.8,13.1,5.9,20.7l0.5,3.4L1007.7,620z M1087.6,667.8L1087.6,667.8 M1054.6,642.2L1054.6,642.2L1054.6,642.2l-3.1,1.4
			c-5.9,2.6-12.8,5.4-18.6,5.5c-2.9,0.1-5.4-0.4-7.6-1.6c-8.8-4.7-10.8-18.6-12.7-32.1c-1.4-10.2-2.9-20.7-7.5-28.1
			c-4-6.4-11.5-11.9-19.5-17.4l-1.8-1.2l-4.6-3.2l-2.7-2c-7.8-5.7-15.8-12.6-16.1-21.2c-0.3-10.6,11-19.3,22-27.8
			c7.9-6.1,16.1-12.5,20-19.7c3.7-6.9,4.8-16.2,5.5-25.2l0.2-2.1l0.4-5.6l0.4-3.4c1.1-10.4,3-20.6,10-25c2.1-1.3,4.6-2,7.5-2.1
			c7.4-0.2,16.6,3.5,25.6,7c9.8,3.9,20,7.9,29,7.7c8.1-0.2,16.8-3.9,25-7.7l1.9-0.9l5.1-2.4l3.1-1.4c5.9-2.6,12.8-5.4,18.6-5.5
			c2.9-0.1,5.4,0.4,7.6,1.6c8.8,4.7,10.8,18.6,12.7,32.1c1.4,10.2,2.9,20.7,7.5,28.1c4,6.4,11.5,11.9,19.5,17.4l1.6,1.1l4.8,3.3
			l2.7,2c7.8,5.7,15.8,12.6,16.1,21.2c0.3,10.6-11,19.3-22,27.8c-7.9,6.1-16.1,12.5-20,19.7c-3.7,6.9-4.8,16.2-5.5,25.2l-0.2,2.1
			l-0.5,6l-0.3,3c-1.1,10.4-3,20.6-10,25c-2.1,1.3-4.6,2-7.5,2.1c-7.4,0.2-16.6-3.5-25.6-7c-9.8-3.9-20-7.9-29-7.7
			c-8.1,0.2-16.8,4-25,7.7l-1.9,0.9 M1155.7,616"/>
		<path class="st0" d="M977,570.7l-0.8,1.9c-5.7,14.2-8.2,24.8-2.9,33.6c1.8,3,4.4,5.4,7.8,7.3c6.6,3.7,15.6,4.9,23.6,5.7l2,0.2
			l5.6,0.5l3.4,0.4c7.4,0.8,15.1,2,20.7,5.2c5.6,3.1,10.8,9.1,15.1,14.6l2.1,2.7l3.4,4.5l1.3,1.6c5,6.4,10.9,13.5,17.5,17.2
			c3.4,1.9,6.8,2.8,10.3,2.7c11.5-0.2,19.8-10.4,27.3-20.8l1.1-1.7l3.3-4.6l2-2.8c4.4-6,9.2-12.1,14.4-15.2
			c4.8-2.9,11.6-4.2,20.5-5.4l3.5-0.5l5.5-0.7l2-0.3c14.8-2,25.7-5.3,30.9-14.7c5.5-9.9,1.4-22-3.8-33.7l-0.8-1.7l-2.4-5.2l-1.4-3.1
			c-3.8-8.3-6.3-14.9-6.4-20.5c-0.1-6.2,2.6-13.7,5.5-20.9l1.3-3.2l2.1-5l0.9-2.2c4.7-11.6,8.8-23.8,2.9-33.6
			c-1.8-3-4.4-5.4-7.8-7.3c-6.6-3.7-15.6-4.9-23.6-5.7l-1.8-0.2l-5.8-0.5l-3.4-0.4c-7.4-0.8-15.1-2-20.7-5.2
			c-5.6-3.1-10.8-9.1-15.1-14.6l-2.1-2.7l-3.4-4.5l-1.3-1.6c-5-6.4-10.9-13.5-17.5-17.2c-3.4-1.9-6.8-2.8-10.3-2.7
			c-11.5,0.2-19.8,10.4-27.3,20.8l-4.6,6.4l-1.9,2.6c-4.4,6-9.2,12.1-14.4,15.2c-4.8,2.9-11.6,4.2-20.5,5.4l-3.3,0.4l-5.6,0.7
			l-2,0.3c-14.8,2-25.7,5.3-30.9,14.7c-5.5,9.9-1.4,22,3.8,33.7l0.9,1.9l2.4,5.1l1.4,3.1c3.8,8.2,6.3,14.9,6.4,20.5
			c0.1,6.2-2.6,13.7-5.5,20.9l-1.3,3.1L977,570.7z M1021.3,652.6L1021.3,652.6 M1005.9,613.8L1005.9,613.8L1005.9,613.8l-3.4-0.4
			c-6.4-0.8-13.7-1.9-18.8-4.7c-2.6-1.4-4.4-3.1-5.7-5.3c-5.1-8.6,0.3-21.5,5.5-34c4-9.5,8.1-19.3,7.9-28
			c-0.1-7.5-3.8-16.1-7.9-24.9l-0.9-1.9l-2.4-5.1l-1.3-3.1c-3.8-8.9-7.1-18.9-3-26.4c5.1-9.3,19.3-11,33.1-12.7
			c9.9-1.2,20.2-2.5,27.3-6.7c6.7-4,12.4-11.5,17.6-18.8l1.2-1.7l3.2-4.6l2.1-2.8c6.2-8.4,13.2-16.2,21.4-16.3c2.5,0,5,0.6,7.5,2
			c6.4,3.6,12.5,11.5,18.4,19.1c6.4,8.4,13.1,17,21,21.4c7.1,3.9,16.5,5.2,25.4,6.1l2.1,0.2l5.6,0.5l3.4,0.4
			c6.4,0.8,13.7,1.9,18.8,4.7c2.6,1.4,4.4,3.2,5.7,5.3c5.1,8.6-0.3,21.5-5.5,34c-4,9.5-8.1,19.3-7.9,28c0.1,7.5,3.8,16.1,7.9,24.9
			l0.8,1.7l2.5,5.3l1.3,3.1c3.8,8.9,7.1,18.9,3,26.4c-5.1,9.2-19.3,11-33.1,12.7c-9.9,1.2-20.2,2.5-27.3,6.7
			c-6.7,4-12.4,11.5-17.6,18.8l-1.2,1.7l-3.5,5l-1.8,2.4c-6.2,8.4-13.2,16.2-21.4,16.3c-2.5,0-5-0.6-7.5-2
			c-6.4-3.6-12.5-11.4-18.4-19.1c-6.4-8.4-13.1-17-21-21.4c-7.1-3.9-16.5-5.2-25.4-6.1l-2.1-0.2 M1106.2,642.8"/>
	</g>
	<g>
		<path class="st0" d="M1073.7,581.7l37.4-37.4c2.6-2.6,2.6-6.7,0-9.2l-8.4-8.4c-2.6-2.6-6.7-2.6-9.2,0l-29,29
			c-1.2,1.2-1.9,2.9-1.9,4.6l0,16.9C1062.6,582.9,1069.6,585.8,1073.7,581.7z"/>
		<path class="st1" d="M1062.6,502.3v16.9c0,1.7,0.7,3.4,1.9,4.6l15.8,15.8l17.7,17.7l17.7-17.7l-42-42
			C1069.7,493.6,1062.6,496.5,1062.6,502.3z"/>
	</g>
	<g>
		<path class="st1" d="M707.1,525.2h21.7c-0.1-5.9-1.5-10.6-4.2-14.1c-2.8-3.6-7.1-6.2-12.9-7.8l1.9-6.5c7.8,2.2,13.5,5.7,17.1,10.3
			c3.8,4.9,5.7,11.6,5.7,20.2v4h-29.2V525.2z"/>
		<polygon class="st1" points="746.7,482 754.3,482 754.3,525.2 761.8,525.2 761.8,531.3 746.7,531.3 		"/>
		<rect x="760.7" y="525.2" class="st1" width="27.9" height="6.1"/>
		<path class="st1" d="M814.3,531.3c-7.9,0-13.2-2-16-6.1c-1.3,4.1-4.9,6.1-10.9,6.1h-1.1v-6.1c2.8,0,4.8-0.7,6.1-2.1
			c1.5-1.6,2.3-4.5,2.3-8.4c0-4.8,1.5-8.8,4.5-11.9c3.3-3.4,7.7-5.2,13.3-5.2c10.3,0,15.4,5.3,15.4,15.8v11.8h6.5v6.1H814.3z
			 M820.5,514.6c0-7.3-2.8-10.9-8.4-10.9c-2.9,0-5.3,1-7,3c-1.7,1.9-2.5,4.5-2.5,7.7c0,7.3,3.9,10.9,11.8,10.9h6.2V514.6z"/>
		<path class="st1" d="M833.4,525.2h10v-26.8h7.7v26.8h6.8v6.1h-24.5V525.2z M837.7,491.3c-0.8-0.8-1.2-1.8-1.2-3
			c0-1.1,0.4-2.1,1.2-2.9s1.8-1.2,2.9-1.2c1.2,0,2.2,0.4,2.9,1.2c0.8,0.8,1.2,1.8,1.2,2.9c0,1.2-0.4,2.2-1.2,3
			c-0.8,0.8-1.8,1.2-2.9,1.2C839.4,492.5,838.5,492.1,837.7,491.3 M848.6,491.3c-0.8-0.8-1.2-1.8-1.2-3c0-1.1,0.4-2.1,1.2-2.9
			c0.8-0.8,1.8-1.2,2.9-1.2c1.2,0,2.1,0.4,2.9,1.2c0.8,0.8,1.2,1.8,1.2,2.9c0,1.2-0.4,2.2-1.2,3c-0.8,0.8-1.8,1.2-2.9,1.2
			C850.3,492.5,849.4,492.1,848.6,491.3"/>
		<path class="st1" d="M856.8,525.2H869c-4.4-2.2-6.6-6-6.6-11.5c0-4.6,1.5-8.4,4.4-11.3c3.2-3.2,7.7-4.8,13.3-4.8
			c3.3,0,6.2,0.5,9,1.5l-1.4,6.1c-2.4-1.1-5-1.6-7.8-1.6c-2.9,0-5.3,0.9-7,2.7c-1.8,1.8-2.7,4.2-2.7,7.3c0,3.5,1.4,6.3,4.2,8.3
			c3,2.2,7.4,3.3,13.3,3.3h5.6v6.1h-36.4V525.2z"/>
		<rect x="902.4" y="482" class="st1" width="7.7" height="49.3"/>
		<polygon class="st1" points="707,596.8 707,549.6 731.9,549.6 731.9,555.9 714.7,555.9 714.7,569.3 731.1,569.3 731.1,575.6 
			714.7,575.6 714.7,590.3 731.9,590.3 731.9,596.8 		"/>
		<path class="st1" d="M759.2,596.6c-2.4,0.5-4.8,0.8-7.3,0.8c-3.7,0-6.2-0.8-7.6-2.4c-1.3-1.5-2-4.3-2-8.2v-19h-6.7V562h6.7v-11
			l7.5-2V562h9.1v5.8h-9.1v16.7c0,2.6,0.3,4.3,1,5.2c0.6,0.9,1.8,1.3,3.6,1.3c1.4,0,2.8-0.2,4.3-0.5L759.2,596.6z"/>
		<path class="st1" d="M774.2,554.5c-0.9,0.9-2,1.4-3.3,1.4c-1.3,0-2.5-0.5-3.4-1.4c-0.9-0.9-1.4-2-1.4-3.3c0-1.3,0.5-2.4,1.4-3.3
			c1-0.9,2.1-1.4,3.4-1.4c1.3,0,2.4,0.5,3.3,1.4c1,0.9,1.4,2,1.4,3.3C775.6,552.4,775.1,553.5,774.2,554.5 M767.1,562h7.5v34.8h-7.5
			V562z"/>
		<path class="st1" d="M828.2,596.8v-22.2c0-4.7-1.7-7.1-5-7.1c-2.4,0-4.4,1.1-6.2,3.5c-1.9,2.4-2.8,5.5-2.8,9.2v16.6h-7.3v-22.2
			c0-4.7-1.7-7.1-5.1-7.1c-2.4,0-4.5,1.2-6.2,3.6c-1.8,2.4-2.7,5.5-2.7,9.1v16.6h-7.5V562h7.1c0,2.6-0.2,4.9-0.5,6.9l0.1,0.1
			c2.2-5.1,6.1-7.6,11.8-7.6c5.5,0,8.7,2.5,9.6,7.5c2.2-5,6.1-7.5,11.6-7.5c6.9,0,10.4,3.8,10.4,11.5v24H828.2z"/>
		<path class="st1" d="M864.9,596.8c0-2.7,0.1-4.9,0.4-6.4l-0.1-0.1c-2,4.8-5.8,7.2-11.5,7.2c-3,0-5.3-0.9-7.1-2.7
			c-1.8-1.8-2.6-4.1-2.6-6.9c0-3.9,1.8-6.9,5.5-9c3.6-2,8.6-3.1,15-3.1v-1.5c0-2.5-0.5-4.3-1.5-5.5c-1.1-1.2-2.9-1.7-5.4-1.7
			c-3.4,0-6.9,0.8-10.5,2.4l-1.3-5.8c4.1-1.6,8.4-2.4,12.9-2.4c4.9,0,8.3,1.1,10.5,3.2c1.9,1.9,2.8,4.9,2.8,8.9v13.8
			c0,3.4,0.1,6.6,0.2,9.5H864.9z M864.4,580.8c-8.8,0-13.2,2-13.2,6.1c0,1.4,0.4,2.5,1.3,3.4c0.9,0.9,2,1.3,3.5,1.3
			c2.4,0,4.5-1,6.1-3c1.6-2,2.4-4.2,2.4-6.8V580.8z"/>
		<path class="st1" d="M903.9,596.8c0-2.5,0.2-4.7,0.5-6.5h-0.1c-2.1,4.8-5.9,7.2-11.3,7.2c-4.2,0-7.4-1.5-9.6-4.4
			c-2.1-2.8-3.2-6.8-3.2-12c0-6,1.6-10.8,4.9-14.3c3.3-3.6,7.7-5.3,13.3-5.3c1,0,2.7,0.1,5.3,0.3v-16h7.4v51.1H903.9z M903.6,568
			c-1.9-0.4-3.7-0.6-5.5-0.6c-6.7,0-10,4.3-10,13c0,7.3,2.3,10.9,6.9,10.9c2.6,0,4.7-1.3,6.4-4c1.5-2.4,2.2-5.2,2.2-8.5V568z"/>
	</g>
</g>
</svg>
