<?xml version="1.0" encoding="utf-8"?>
<!-- Generator: Adobe Illustrator 21.1.0, SVG Export Plug-In . SVG Version: 6.00 Build 0)  -->
<svg version="1.1" id="Layer_1" xmlns="http://www.w3.org/2000/svg" xmlns:xlink="http://www.w3.org/1999/xlink" x="0px" y="0px"
	 viewBox="0 100 500 250" style="enable-background:new 0 0 500 500;" xml:space="preserve">
<style type="text/css">
	.st0{fill:#00594D;}
	.st1{fill:#FFFFFF;}
	.st2{fill:#29AC6F;}
	.st3{fill:#2AA670;}
	.st4{fill:#2CA070;}
	.st5{fill:#28996F;}
	.st6{fill:#2A926E;}
	.st7{fill:#298C6D;}
	.st8{fill:#36766C;}
	.st9{fill:#286F65;}
	.st10{fill:#2A846C;}
	.st11{fill:#288069;}
	.st12{fill:#28846A;}
	.st13{fill:#16695E;}
	.st14{fill:#227264;}
</style>
<g>
	<g>
		<g>
			<path class="st0" d="M0.5,300.3h5.9l8.5,12.8l0.2,0.6l0.2-0.6l8.5-12.8h3.2v24.4h-3.5v-19.1l-0.3,0.9L16.1,317h-2L7,306.5
				l-0.3-0.8v19H3.2v-21.9L0.5,302V300.3z"/>
			<path class="st0" d="M36.5,307.8v17h-3.3v-14.9l-2.1-0.6v-1.5H36.5z M37.1,302.4l-2.8,1.7l-1.7-2.9l2.9-1.7L37.1,302.4z"/>
			<path class="st0" d="M57.9,313.2v11.5h-3.3v-10.6c0-2.5-1.1-3.8-3.3-3.9c-1.7-0.1-3.6,0.8-5.9,2.8v11.7h-3.3v-14.9l-2.1-0.6v-1.5
				h5l0.3,2.9c2.4-2.2,4.7-3.4,7.1-3.4C55.7,307.3,57.9,309.4,57.9,313.2z"/>
			<path class="st0" d="M66.8,307.8v17h-3.3v-14.9l-2.1-0.6v-1.5H66.8z M67.3,302.4l-2.8,1.7l-1.7-2.9l2.9-1.7L67.3,302.4z"/>
			<path class="st0" d="M78.6,325c-2.6,0.4-5.6-0.1-8.2-1.1l0.6-2.4c4,1.5,9,1.9,9.1-1.3c0-0.7-0.3-1.2-1.3-1.8
				c-0.5-0.3-0.9-0.5-1.3-0.6c-0.4-0.1-1-0.4-1.9-0.7c-3.4-1.3-5.2-2.5-5.1-5.1c0.1-5.3,7.6-5.5,11.9-3.6l-0.6,2.4
				c-3.4-1.5-8.2-1.4-8.2,1.1c0,0.9,0.5,1.4,1.4,1.8c0.7,0.4,0.9,0.4,1.9,0.8c0.5,0.2,0.8,0.3,1.1,0.4c3.4,1.2,5.2,2.5,5.1,5.2
				C83.2,322.9,81.2,324.6,78.6,325z"/>
			<path class="st0" d="M96.1,324.5c-2.8,0.9-4.9,0.9-6.3-0.1c-1.4-1-2.1-2.5-2.1-4.5v-9.6h-2.8v-1.5l2.8-1.2v-3.8H91v4h3.6v2.5H91
				v9.2c0,2.5,1.1,3.6,4.5,2.6L96.1,324.5z"/>
			<path class="st0" d="M102.8,310.6c2.4-2.5,4.1-3.8,6.7-3.1l-0.3,2.8c-2.3-0.4-3.9,0.7-6.3,3.3v11.2h-3.3v-14.9l-2.1-0.6v-1.5h5
				L102.8,310.6z"/>
			<path class="st0" d="M125,307.8h3.4l-9.6,24.4h-3.4l3.6-8.7h-1.3l-6.6-15.7h3.3l5.5,13.2L125,307.8z"/>
			<path class="st0" d="M147.3,325.1c-2.5,0-4.6-0.8-6.2-2.5c-1.6-1.7-2.4-3.8-2.4-6.4c0-2.6,0.8-4.7,2.4-6.4
				c1.6-1.7,3.6-2.5,6.2-2.5c2.5,0,4.6,0.8,6.2,2.5c1.6,1.7,2.4,3.8,2.4,6.4c0,2.6-0.8,4.8-2.4,6.4
				C151.9,324.3,149.8,325.1,147.3,325.1z M147.3,322.5c1.6,0,2.8-0.6,3.8-1.7c1-1.1,1.5-2.7,1.5-4.6s-0.5-3.5-1.4-4.6
				c-1-1.1-2.2-1.7-3.8-1.7c-1.6,0-2.8,0.5-3.8,1.7c-1,1.1-1.5,2.6-1.5,4.6s0.5,3.5,1.5,4.6C144.5,321.9,145.7,322.5,147.3,322.5z"
				/>
			<path class="st0" d="M169.2,300.9c-4.1-1-5.4,0.1-5.4,2.6v4.2h4.3v2.5h-4.3v14.4h-3.3v-14.4h-2.6v-2.5h2.6v-4.2
				c0-2.2,0.7-3.9,2.2-4.9c1.5-1.1,3.8-1.2,7.2-0.3L169.2,300.9z"/>
			<path class="st0" d="M197.2,303.1h-11.3v8.9h9.2v2.8h-9.2v9.8h-3.5v-21.9l-2.8-0.8v-1.7h17.5V303.1z"/>
			<path class="st0" d="M205.2,307.8v17h-3.3v-14.9l-2.1-0.6v-1.5H205.2z M205.7,302.4l-2.8,1.7l-1.7-2.9l2.9-1.7L205.7,302.4z"/>
			<path class="st0" d="M226.6,313.2v11.5h-3.3v-10.6c0-2.5-1.1-3.8-3.3-3.9c-1.7-0.1-3.6,0.8-5.9,2.8v11.7h-3.3v-14.9l-2.1-0.6
				v-1.5h5l0.3,2.9c2.4-2.2,4.7-3.4,7.1-3.4C224.3,307.3,226.6,309.4,226.6,313.2z"/>
			<path class="st0" d="M231.2,323.3c-0.8-1.2-1.2-2.4-1.1-3.7c0.1-1.3,0.5-2.4,1.2-3.2c0.8-1,2-1.6,3.5-1.9
				c1.5-0.2,3.7-0.2,6.5-0.1v-1.9c0-2.7-2.8-3.3-8.3-1.7l-0.6-2.4c2.7-0.9,5.4-1.3,7.9-1c2.5,0.3,4.2,1.9,4.2,4.6l0,10.6l2.1,0.5
				v1.5h-5l-0.2-2.6c-2.2,2-3.9,3.2-6.3,3.1C233.3,325.1,232,324.5,231.2,323.3z M241.1,320.1l0-3.5c-4.4-0.2-6.3-0.1-7.3,1.2
				c-1.1,1.2-0.9,4.4,1.9,4.7C237.3,322.8,239.1,321.9,241.1,320.1z"/>
			<path class="st0" d="M266.2,313.2v11.5h-3.3v-10.6c0-2.5-1.1-3.8-3.3-3.9c-1.7-0.1-3.6,0.8-5.9,2.8v11.7h-3.3v-14.9l-2.1-0.6
				v-1.5h5l0.3,2.9c2.4-2.2,4.7-3.4,7.1-3.4C264,307.3,266.2,309.4,266.2,313.2z"/>
			<path class="st0" d="M272.3,322.7c-1.5-1.7-2.2-3.8-2.2-6.5c0-2.7,0.7-4.8,2.2-6.5c1.5-1.6,3.4-2.4,5.8-2.4c2,0,4,0.6,5.8,1.7
				l-0.6,2.3c-1.9-1.1-3.5-1.5-4.9-1.5c-3.1,0-5.1,2.5-5.1,6.3c0,3.8,1.9,6.2,5.2,6.3c1.6,0.1,3.3-0.4,5.2-1.4l0.6,2.3
				c-1.9,1.1-4,1.7-6.1,1.7C275.7,325.2,273.8,324.4,272.3,322.7z"/>
			<path class="st0" d="M289,322.6c-1.5-1.7-2.2-3.8-2.2-6.4c0-2.7,0.7-4.8,2.3-6.5c1.5-1.7,3.5-2.5,5.9-2.4c6.2,0,7.7,5,6.7,9.6
				h-11.7c0,3.6,2.1,5.6,5.7,5.6c1.8,0,3.5-0.5,5.3-1.4l0.5,2.2c-1.7,1.3-3.8,1.9-6.3,1.9C292.6,325.1,290.5,324.3,289,322.6z
				 M299,314.6c0.2-2.7-0.8-4.6-4-4.7c-2.7,0-4.5,1.8-4.8,4.7H299z"/>
		</g>
		<g>
			<g>
				<path class="st0" d="M257.5,234.5v2.2l-3,0.8v35.3h-4.7v-38.3H257.5z"/>
				<polygon class="st0" points="272.3,240.4 268,243 265.4,238.6 269.9,236 				"/>
				<path class="st0" d="M266,248.3v27.3c0,3.2-0.2,5.6-5.4,4.6l-0.9,3.6c9.5,2.2,11-3,11.1-8.4v-24.2l2.9-0.8v-2.2H266z"/>
				<path class="st0" d="M234.3,248.3v27.3c0,3.2-0.2,5.6-5.4,4.6l-0.9,3.6c9.5,2.2,11-3,11.1-8.4v-24.2l2.9-0.8v-2.2H234.3z"/>
				<g>
					<polygon class="st0" points="222.1,240.4 217.8,243 215.2,238.6 219.7,236 					"/>
					<polygon class="st0" points="214.3,240.4 209.9,243 207.4,238.6 211.8,236 					"/>
				</g>
				<path class="st0" d="M215.9,248.3c-4.4,0-15.3,0.8-15.3,12.7c0,11,8.1,11.9,11.1,11.9h11.6v-21.5l3-0.9v-2.2H215.9z
					 M211.7,268.9c-2.5,0-6.2-1.4-6.2-7.9c0-8.6,7.6-8.9,10.4-8.9h2.6v16.8H211.7z"/>
				<path class="st0" d="M302,248.3h-10.2c-3.7,0-6.6,1.2-8.9,3.6c-2.3,2.4-3.5,5.5-3.5,9.3c0,8.6,7.6,11.7,12.4,11.7h5.4h0.1
					c0,8.1-5.3,8.8-14,6.3l-0.9,3.7c6.2,1.9,11,1.9,14.4,0c3.4-1.9,5.2-4.9,5.2-9.9V248.3z M297.3,268.9h-5.4
					c-4.5,0-7.6-3.6-7.6-7.8c0-2.8,0.7-5,2.1-6.6c1.4-1.6,3.2-2.4,5.5-2.4h5.4V268.9z"/>
			</g>
			<g>
				<g>
					<polygon class="st0" points="72.3,280.1 74.9,284.4 79.2,281.8 76.7,277.4 					"/>
					<polygon class="st0" points="64.4,280.1 67,284.4 71.4,281.8 68.9,277.4 					"/>
					<polygon class="st0" points="25.3,239.6 22.8,235.2 18.4,237.8 21,242.2 					"/>
					<polygon class="st0" points="17.5,239.6 15,235.2 10.5,237.8 13.1,242.2 					"/>
					<polygon class="st0" points="180.4,234.5 180.4,272.8 185.2,272.8 185.2,237.5 188.2,236.7 188.2,234.5 					"/>
				</g>
				<path class="st0" d="M167,234.5v34.4h-11.6V261c0-11.9-6.9-12.7-11.3-12.7c-4.4,0-11.3,0.8-11.3,12.7v1.4c0,6.5-3.7,6.5-6.2,6.5
					H108v-34.4h-4.7v38.3h23.2c2,0,6.5,0.3,9.1-3.2c2.6,2.8,6.4,3.2,8.2,3.2h27.9v-35.3l3-0.8v-2.2H167z M150.6,268.9h-6.8
					c-2.5,0-6.2-1.4-6.2-7.9c0-8.6,3.7-8.9,6.5-8.9c2.8,0,6.5,0.3,6.5,8.9V268.9z"/>
				<path class="st0" d="M89.8,234.5v34.4h-8.6c-2.4,0-6,0-6.3-5.8v-14.8h-4.8v14.2c0,6.5-3.8,6.5-6.3,6.5H25.4
					c-0.3,0-0.5-0.2-0.5-0.5v-19.1l3-0.9v-2.2H17.5c-4.4,0-14.3,0.8-14.3,12.7c0,11,10.9,11.2,13.8,11.2h3.1v0.6c0,1.1,0.9,2,2,2
					h41.8c1.9,0,6.1,0.2,8.7-2.7c2.6,2.9,6.8,2.7,8.7,2.7h13.3v-35.3l3-0.8v-2.2H89.8z M20.1,266.3H17c-2.5,0-9-0.4-9-7.3
					c0-8.6,6.6-8.9,9.5-8.9h2.6V266.3z"/>
			</g>
		</g>
	</g>
	<g>
		<path class="st0" d="M439.7,257.4l-1.1-0.4c-1.7-0.6-3.8-0.8-6-0.8c-5.6,0-12,1.8-17.2,4.8c-1.5-8.9-0.8-19.1-0.6-21.8
			c2.1,1.2,4.7,3.5,6.4,9.7l0.2,0.8l0.1-0.8c1.3-7-3.5-11.5-3.7-11.7c0.2,0,1.5,0,3.3,0.8c1.7,0.8,4.2,2.4,6.6,6l0.5,0.8l-0.2-0.9
			c-1.8-8.9-9.1-10.7-9.6-10.8c0.1-0.1,2.5-1.7,9.4,0.5l0.6,0.2l-0.4-0.5c-4.3-5-10.7-3.6-11.4-3.5l0,0c0.3-0.6,1.3-1.9,3.4-3.4
			l0.7-0.5l-0.8,0.1c-3.5,0.5-5.4,2.1-5.9,2.7c0-0.8-0.2-2.2-0.7-3.2l-0.2-0.4l-0.2,0.4c-0.5,1.1-0.6,2.5-0.7,3.2
			c-0.4-0.6-2.4-2.2-5.9-2.7l-0.8-0.1l0.6,0.5c2.1,1.5,3.2,2.8,3.4,3.4c-0.7-0.1-7.2-1.5-11.4,3.5l-0.4,0.5l0.6-0.2
			c7-2.3,9.3-0.6,9.4-0.5c-0.4,0.1-7.7,1.9-9.6,10.8l-0.2,0.9l0.5-0.8c2.5-3.6,5-5.3,6.6-6c1.7-0.8,3-0.8,3.2-0.8c0,0,0,0,0,0
			c-0.2,0.2-4.9,4.7-3.7,11.7l0.1,0.8l0.2-0.8c1.7-6.2,4.3-8.5,6.4-9.7c0.2,2.6,0.9,12.9-0.6,21.8c-5.2-3-11.6-4.8-17.2-4.8
			c-0.1,0-0.2,0-0.2,0c-2.2,0-4.1,0.3-5.8,0.8l-1.1,0.4h1.2c9.8,0,15.7,2.4,22.5,6.6c-0.2,0.1-0.3,0.2-0.5,0.4
			c-2.8,2-9.4,6.7-12.6,6.7c-0.6,0-1.1-0.1-1.6-0.2l-0.6-0.2l0.5,0.6c0.4,0.5,1.3,1.5,3,1.5c4,0,9.5-3.8,12.8-6.1
			c0.6-0.4,1.2-0.8,1.6-1.1c0.4,0.3,1,0.7,1.6,1.1c3.3,2.3,8.8,6.1,12.8,6.1c1.7,0,2.6-1.1,3-1.5l0.5-0.6l-0.6,0.2
			c-0.5,0.1-1,0.2-1.6,0.2c-3.2,0-9.8-4.7-12.6-6.7c-0.2-0.1-0.4-0.3-0.5-0.4c6.8-4.2,12.7-6.6,22.5-6.6H439.7z"/>
		<g>
			<g>
				<g>
					<path class="st2" d="M423.6,289.8c-1.3,0-2.6-0.3-3.7-0.9c-3.5-1.8-9.5-1.8-13,0c-2,1-4.2,1.2-6.3,0.5
						c-2.1-0.7-3.8-2.1-4.8-4.1c-1.8-3.5-6.6-7-10.5-7.6c-2.2-0.3-4.1-1.5-5.4-3.3c-1.3-1.8-1.8-4-1.5-6.1c0.6-3.9-1.2-9.6-4-12.3
						c-1.6-1.6-2.4-3.6-2.4-5.8c0-2.2,0.9-4.3,2.4-5.8c2.8-2.8,4.6-8.4,4-12.3c-0.3-2.2,0.2-4.4,1.5-6.1c1.3-1.8,3.2-3,5.4-3.3
						c3.9-0.6,8.7-4.1,10.5-7.6c1-2,2.7-3.4,4.8-4.1c2.1-0.7,4.3-0.5,6.3,0.5c3.5,1.8,9.5,1.8,13,0c2-1,4.2-1.2,6.3-0.5
						c2.1,0.7,3.8,2.1,4.8,4.1c1.8,3.5,6.6,7,10.5,7.6c4.5,0.7,7.6,5,6.9,9.5c-0.6,3.9,1.2,9.6,4,12.3c1.6,1.6,2.4,3.6,2.4,5.8
						c0,2.2-0.9,4.3-2.4,5.8c-2.8,2.8-4.6,8.4-4,12.3c0.7,4.5-2.4,8.8-6.9,9.5c-3.9,0.6-8.7,4.1-10.5,7.6c-1,2-2.7,3.4-4.8,4.1
						C425.3,289.7,424.4,289.8,423.6,289.8z M413.3,286.2c2.6,0,5.1,0.5,7.1,1.5c1.7,0.8,3.5,1,5.3,0.4c1.8-0.6,3.2-1.8,4.1-3.4
						c2-3.9,7.1-7.6,11.5-8.3c3.8-0.6,6.4-4.2,5.8-8c-0.7-4.3,1.3-10.4,4.4-13.5c1.3-1.3,2-3.1,2-4.9c0-1.9-0.7-3.6-2-4.9l0,0
						c-3.1-3.1-5.1-9.1-4.4-13.5c0.6-3.8-2-7.4-5.8-8c-4.3-0.7-9.5-4.4-11.5-8.3c-0.8-1.6-2.3-2.9-4.1-3.5c-1.8-0.6-3.7-0.4-5.3,0.4
						c-3.9,2-10.3,2-14.2,0c-1.6-0.8-3.5-1-5.3-0.4c-1.8,0.6-3.2,1.8-4.1,3.5c-2,3.9-7.1,7.6-11.5,8.3c-1.8,0.3-3.4,1.3-4.5,2.8
						c-1.1,1.5-1.5,3.3-1.2,5.2c0.7,4.3-1.3,10.4-4.4,13.5c-1.3,1.3-2,3.1-2,4.9c0,1.9,0.7,3.6,2,4.9c3.1,3.1,5.1,9.1,4.4,13.5
						c-0.3,1.8,0.2,3.7,1.2,5.2c1.1,1.5,2.7,2.5,4.5,2.8c4.3,0.7,9.5,4.4,11.5,8.3c0.8,1.7,2.3,2.9,4.1,3.4c1.8,0.6,3.7,0.4,5.3-0.4
						C408.2,286.7,410.8,286.2,413.3,286.2z"/>
				</g>
				<g>
					<path class="st3" d="M419,294.2c-1.8,0-3.6-0.5-5.2-1.7c-3.5-2.5-9.8-3.5-13.9-2.2c-4.6,1.5-9.7-1-11.2-5.7
						c-1.3-4.1-5.9-8.6-10-9.9c-2.3-0.7-4.1-2.3-5.2-4.4c-1.1-2.1-1.3-4.5-0.6-6.8c1.3-4.1,0.3-10.4-2.2-13.9
						c-1.4-1.9-2-4.3-1.6-6.6c0.4-2.3,1.6-4.4,3.5-5.8c3.5-2.5,6.4-8.3,6.4-12.5c0-4.9,4-8.9,8.9-8.9c4.3,0,10-2.9,12.5-6.4
						c1.4-1.9,3.4-3.2,5.8-3.6c2.3-0.4,4.7,0.2,6.6,1.6c3.5,2.5,9.8,3.5,13.9,2.2c2.2-0.7,4.7-0.5,6.8,0.5c2.1,1.1,3.7,2.9,4.4,5.2
						c1.3,4.1,5.9,8.6,10,9.9l0,0c2.2,0.7,4.1,2.3,5.2,4.4c1.1,2.1,1.3,4.5,0.6,6.8c-1.3,4.1-0.3,10.4,2.2,13.9
						c1.4,1.9,2,4.3,1.6,6.6c-0.4,2.4-1.6,4.4-3.5,5.8c-3.5,2.5-6.4,8.3-6.4,12.5c0,2.4-0.9,4.6-2.6,6.3c-1.7,1.7-3.9,2.6-6.3,2.6
						c-4.3,0-10,2.9-12.5,6.4C424.5,292.9,421.8,294.2,419,294.2z M404.1,288.5c3.7,0,7.8,1.1,10.5,3c3.4,2.4,8.1,1.7,10.6-1.7
						c2.8-3.8,8.8-6.9,13.6-7c2,0,3.9-0.8,5.3-2.2c1.4-1.4,2.2-3.3,2.2-5.3c0-4.7,3.1-10.8,6.9-13.6c3.4-2.5,4.1-7.2,1.6-10.6
						c-2.8-3.8-3.9-10.6-2.4-15.1c0.6-1.9,0.4-4-0.5-5.8c-0.9-1.8-2.5-3.1-4.4-3.8l0,0c-4.5-1.4-9.3-6.3-10.8-10.8
						c-0.6-1.9-2-3.5-3.8-4.4c-1.8-0.9-3.9-1.1-5.8-0.5c-4.5,1.5-11.2,0.4-15.1-2.4c-1.6-1.2-3.6-1.6-5.6-1.3c-2,0.3-3.8,1.4-4.9,3
						c-2.8,3.8-8.9,6.9-13.6,7c-4.2,0-7.6,3.4-7.5,7.6c0,4.7-3.1,10.8-6.9,13.6c-1.6,1.2-2.7,2.9-3,4.9c-0.3,2,0.2,4,1.4,5.6
						c2.8,3.8,3.9,10.6,2.4,15.1c-0.6,1.9-0.4,4,0.5,5.8c0.9,1.8,2.5,3.1,4.4,3.8c4.5,1.4,9.3,6.3,10.8,10.8c1.3,4,5.6,6.1,9.5,4.8
						C400.9,288.7,402.5,288.5,404.1,288.5z"/>
				</g>
				<g>
					<path class="st4" d="M414,298c-2.4,0-4.8-0.9-6.6-2.7c-3.4-3.3-9.9-5.3-14.5-4.5c-2.5,0.4-5-0.1-7.1-1.6
						c-2.1-1.5-3.5-3.6-3.9-6.1c-0.8-4.6-4.9-10.1-9.1-12.1c-4.7-2.3-6.7-8-4.4-12.7c2.1-4.2,2-11-0.2-15.2
						c-1.2-2.2-1.4-4.8-0.7-7.2c0.7-2.4,2.4-4.4,4.6-5.6c4.2-2.2,8.1-7.8,8.7-12.4c0.4-2.5,1.7-4.7,3.7-6.3c2-1.5,4.5-2.2,7-1.8
						c4.6,0.7,11.1-1.5,14.4-4.9c3.6-3.8,9.7-3.9,13.4-0.2c3.4,3.3,9.9,5.3,14.5,4.5c2.5-0.4,5,0.1,7.1,1.6c2.1,1.5,3.5,3.6,3.9,6.1
						c0.8,4.6,4.9,10.1,9.1,12.1l0,0c4.7,2.3,6.7,8,4.4,12.7c-2.1,4.2-2,11,0.2,15.2c1.2,2.2,1.4,4.8,0.7,7.2
						c-0.7,2.4-2.4,4.4-4.6,5.6c-4.2,2.2-8.1,7.8-8.7,12.4c-0.4,2.5-1.7,4.7-3.7,6.3c-2,1.5-4.5,2.2-7,1.8
						c-4.6-0.7-11.1,1.5-14.4,4.9C418.9,297,416.4,298,414,298z M395,289.4c4.7,0,10.2,2,13.3,5c3.2,3.1,8.4,3.1,11.6-0.2
						c3.5-3.6,10.5-6,15.5-5.3c2.1,0.3,4.3-0.3,6.1-1.6c1.8-1.3,2.9-3.2,3.2-5.4c0.7-5,4.9-11,9.4-13.4c1.9-1,3.3-2.7,4-4.8
						c0.6-2.1,0.4-4.3-0.6-6.2c-2.4-4.5-2.5-11.8-0.3-16.4c2-4.1,0.3-9-3.8-11l0,0c-4.6-2.2-9-8.1-9.8-13.1c-0.4-2.1-1.6-4-3.4-5.3
						c-1.8-1.3-4-1.8-6.1-1.4c-5,0.9-12-1.3-15.6-4.8c-3.2-3.1-8.4-3.1-11.6,0.2c-3.5,3.6-10.5,6-15.5,5.3c-2.1-0.3-4.3,0.3-6.1,1.6
						c-1.8,1.3-2.9,3.2-3.2,5.4c-0.7,5-4.9,11-9.4,13.4c-1.9,1-3.3,2.7-4,4.8c-0.6,2.1-0.4,4.3,0.6,6.2c2.4,4.5,2.5,11.8,0.3,16.4
						c-2,4.1-0.3,9,3.8,11c4.5,2.2,9,8.1,9.8,13.1c0.4,2.1,1.6,4,3.4,5.3c1.8,1.3,4,1.8,6.1,1.4C393.4,289.5,394.2,289.4,395,289.4z
						"/>
				</g>
				<g>
					<path class="st5" d="M408.8,301.1c-0.4,0-0.8,0-1.2-0.1c-2.7-0.3-5.1-1.6-6.8-3.7c-3.1-3.9-9.8-7-14.8-6.7
						c-5.6,0.3-10.3-4.1-10.6-9.7c-0.2-5-3.8-11.4-8-14.2c-2.3-1.5-3.8-3.8-4.3-6.4c-0.5-2.7,0-5.4,1.5-7.6
						c2.8-4.2,3.6-11.5,1.8-16.2c-0.9-2.5-0.9-5.3,0.3-7.7c1.1-2.5,3.1-4.4,5.7-5.3c4.7-1.8,9.6-7.2,11-12c0.7-2.6,2.4-4.8,4.8-6.1
						c2.4-1.3,5.1-1.7,7.7-1c4.9,1.3,12-0.1,16-3.3c2.1-1.7,4.8-2.4,7.4-2.1c2.7,0.3,5.1,1.6,6.8,3.7c3.1,3.9,9.8,7,14.8,6.7
						c5.6-0.3,10.3,4.1,10.6,9.7c0.2,5,3.8,11.4,8,14.2l0,0c4.7,3.1,6,9.4,2.9,14c-2.8,4.2-3.6,11.5-1.8,16.2c2,5.2-0.7,11.1-5.9,13
						c-4.7,1.8-9.6,7.2-11,12c-0.7,2.6-2.4,4.8-4.8,6.1c-2.4,1.3-5.1,1.7-7.7,1c-4.9-1.3-12,0.1-16,3.3
						C413.2,300.3,411,301.1,408.8,301.1z M386.5,289.2c5.3,0,12.1,3.2,15.3,7.2c1.5,1.8,3.6,3,5.9,3.3c2.3,0.3,4.7-0.4,6.5-1.9
						c4.2-3.4,11.9-4.9,17.1-3.5c2.3,0.6,4.6,0.3,6.7-0.8c2.1-1.2,3.5-3.1,4.2-5.3c1.4-5.2,6.7-11,11.8-12.9
						c4.6-1.7,6.9-6.8,5.2-11.4c-1.9-5.1-1-12.9,2-17.4c2.7-4.1,1.6-9.5-2.5-12.2l0,0c-4.5-3-8.4-9.8-8.6-15.2
						c-0.2-4.9-4.4-8.6-9.2-8.4c-5.4,0.2-12.5-3-15.9-7.2c-1.5-1.8-3.6-3-5.9-3.3c-2.4-0.3-4.7,0.4-6.5,1.9
						c-4.2,3.4-11.9,4.9-17.1,3.5c-2.3-0.6-4.6-0.3-6.7,0.8c-2.1,1.2-3.5,3.1-4.2,5.3c-1.4,5.2-6.7,11-11.8,12.9
						c-2.2,0.8-3.9,2.5-4.9,4.6c-1,2.2-1.1,4.5-0.2,6.7c1.9,5.1,1,12.9-2,17.4c-1.3,2-1.7,4.3-1.3,6.6c0.5,2.3,1.8,4.3,3.8,5.6
						c4.5,3,8.4,9.8,8.6,15.2c0.2,4.9,4.3,8.6,9.2,8.4C386.1,289.2,386.3,289.2,386.5,289.2z"/>
				</g>
				<g>
					<path class="st6" d="M403.5,304.1c-0.8,0-1.6-0.1-2.4-0.3c-2.8-0.6-5.2-2.3-6.8-4.8c-2.9-4.6-9.7-8.6-15.1-9
						c-6-0.4-10.5-5.6-10.1-11.5c0.4-5.4-2.7-12.7-6.9-16.2c-2.2-1.8-3.6-4.5-3.8-7.4c-0.3-2.9,0.6-5.7,2.5-7.9
						c3.5-4.2,5.2-11.9,3.9-17.1c-1.5-5.8,2.1-11.7,7.9-13.2c5.3-1.3,11.2-6.5,13.2-11.6c2.2-5.5,8.5-8.3,14.1-6
						c5,2,12.9,1.3,17.5-1.6c2.4-1.5,5.3-2,8.2-1.4c2.8,0.6,5.2,2.3,6.8,4.8c2.9,4.6,9.7,8.6,15.1,9c6,0.4,10.5,5.6,10.1,11.5
						c-0.4,5.4,2.7,12.7,6.9,16.1l0,0c2.2,1.8,3.6,4.5,3.8,7.4c0.3,2.9-0.6,5.7-2.5,7.9c-3.5,4.2-5.2,11.9-3.9,17.1
						c1.5,5.8-2.1,11.7-7.9,13.2c-5.3,1.3-11.2,6.5-13.2,11.6c-1.1,2.7-3.1,4.8-5.8,5.9c-2.7,1.1-5.6,1.2-8.3,0.1
						c-5-2-12.9-1.3-17.5,1.6C407.5,303.5,405.5,304.1,403.5,304.1z M395.9,199.7c-3.8,0-7.4,2.3-8.9,6c-2.2,5.4-8.5,10.9-14.1,12.3
						c-5.1,1.3-8.2,6.5-6.9,11.6c1.4,5.6-0.4,13.8-4.2,18.3c-1.6,1.9-2.4,4.4-2.2,7c0.2,2.5,1.4,4.8,3.4,6.5
						c4.5,3.7,7.8,11.5,7.4,17.2c-0.4,5.2,3.6,9.8,8.9,10.2c5.8,0.4,13,4.7,16.1,9.6c1.4,2.2,3.5,3.6,6,4.2c2.5,0.6,5,0.1,7.2-1.2
						c4.9-3.1,13.3-3.8,18.7-1.7c2.4,0.9,4.9,0.9,7.3-0.1c2.4-1,4.2-2.9,5.1-5.2c2.2-5.4,8.5-10.9,14.1-12.3
						c5.1-1.3,8.2-6.5,6.9-11.6c-1.4-5.6,0.4-13.8,4.2-18.3c1.6-1.9,2.4-4.4,2.2-7c-0.2-2.5-1.4-4.8-3.4-6.5l0,0
						c-4.5-3.7-7.8-11.4-7.4-17.2c0.4-5.2-3.6-9.8-8.9-10.2c-5.8-0.4-13-4.7-16.1-9.6c-2.8-4.5-8.7-5.8-13.1-3
						c-4.9,3.1-13.3,3.8-18.7,1.7C398.3,199.9,397.1,199.7,395.9,199.7z"/>
				</g>
				<g>
					<path class="st7" d="M427.9,307.4c-1.8,0-3.6-0.4-5.3-1.3c-5.2-2.7-13.8-2.8-19-0.1c-2.8,1.4-5.9,1.6-8.9,0.6
						c-3-1-5.4-3.1-6.8-5.8c-2.6-5.3-9.5-10.3-15.3-11.3c-3.1-0.5-5.8-2.2-7.6-4.7c-1.8-2.5-2.5-5.6-2-8.7c1-5.8-1.6-14-5.8-18.1
						c-4.5-4.6-4.5-12,0.1-16.5c4.2-4.1,6.9-12.2,6-18.1c-1-6.4,3.4-12.3,9.8-13.3c5.8-0.9,12.8-5.9,15.5-11.1
						c1.4-2.8,3.9-4.8,6.8-5.7c3-0.9,6.1-0.7,8.9,0.7c5.2,2.7,13.8,2.8,19,0.1c2.8-1.4,5.9-1.6,8.9-0.6c3,1,5.4,3.1,6.8,5.8
						c2.6,5.3,9.5,10.3,15.3,11.3c3.1,0.5,5.8,2.2,7.6,4.7c1.8,2.5,2.5,5.6,2,8.7c-1,5.8,1.6,14,5.8,18.1l0,0
						c4.5,4.6,4.5,12-0.1,16.5c-4.2,4.1-6.9,12.2-6,18.1c1,6.4-3.4,12.3-9.8,13.3c-5.8,0.9-12.8,5.9-15.5,11.1
						C436.2,305.1,432.1,307.4,427.9,307.4z M412.8,302.7c3.7,0,7.5,0.7,10.3,2.2c5.1,2.6,11.3,0.6,14-4.4
						c2.9-5.6,10.2-10.8,16.4-11.8c5.6-0.9,9.5-6.2,8.7-11.8c-0.9-6.2,1.9-14.8,6.4-19.2c4.1-4,4.1-10.6,0.1-14.7
						c-4.4-4.5-7.1-13.1-6.1-19.3c0.4-2.7-0.2-5.5-1.8-7.7c-1.6-2.3-4-3.7-6.7-4.2c-6.2-1-13.5-6.4-16.3-12c-1.2-2.5-3.4-4.3-6-5.2
						c-2.6-0.9-5.4-0.7-7.9,0.6c-5.6,2.8-14.7,2.7-20.2-0.1c-2.4-1.3-5.3-1.5-7.9-0.7c-2.6,0.8-4.8,2.7-6.1,5.1
						c-2.9,5.6-10.3,10.8-16.4,11.8c-5.7,0.9-9.5,6.2-8.7,11.8c0.9,6.2-1.9,14.8-6.4,19.2c-4.1,4-4.1,10.6-0.1,14.7
						c4.4,4.5,7.1,13.1,6.1,19.3c-0.5,2.7,0.2,5.5,1.8,7.7c1.6,2.3,4,3.7,6.7,4.2c6.2,1,13.5,6.4,16.3,12c1.2,2.5,3.4,4.3,6,5.2
						c2.6,0.9,5.4,0.7,7.9-0.6C405.6,303.4,409.2,302.7,412.8,302.7z"/>
				</g>
				<g>
					<path class="st13" d="M413.3,340.1c-2.5,0-4.9-1-6.7-2.8L396.3,327c-3.3-3.3-9.8-5.4-14.4-4.7l-14.4,2.3
						c-5.2,0.8-10.1-2.7-10.9-7.9l-2.3-14.4c-0.7-4.6-4.7-10.2-8.9-12.3l-13-6.6c-2.3-1.1-3.9-3.1-4.7-5.5c-0.8-2.4-0.6-5,0.6-7.2
						l6.6-13c2.1-4.2,2.1-11,0-15.2l-6.6-13c-1.1-2.3-1.3-4.8-0.6-7.3c0.8-2.4,2.5-4.4,4.7-5.5l13-6.6c4.2-2.1,8.2-7.6,8.9-12.3
						l2.3-14.4c0.8-5.2,5.7-8.7,10.9-7.9l14.4,2.3c4.6,0.7,11.1-1.4,14.4-4.7l10.3-10.3c1.8-1.8,4.2-2.8,6.7-2.8s4.9,1,6.7,2.8
						l10.3,10.3c3.3,3.3,9.8,5.4,14.4,4.7l14.4-2.3c2.5-0.4,5,0.2,7.1,1.7c2.1,1.5,3.4,3.7,3.8,6.2l2.3,14.4
						c0.7,4.6,4.7,10.2,8.9,12.3l13,6.6c2.3,1.1,3.9,3.1,4.7,5.5c0.8,2.4,0.6,5-0.6,7.3l-6.6,13c-2.1,4.2-2.1,11,0,15.2l6.6,13
						c2.4,4.7,0.5,10.4-4.2,12.8l-13,6.6c-4.2,2.1-8.2,7.6-8.9,12.3l-2.3,14.4c-0.8,5.2-5.7,8.7-10.9,7.9l-14.4-2.3
						c-4.6-0.7-11.1,1.4-14.4,4.7l-10.3,10.3C418.3,339.1,415.9,340.1,413.3,340.1z M383.8,320.9c4.7,0,10.4,2.1,13.5,5.2l10.3,10.3
						c1.5,1.5,3.6,2.4,5.8,2.4c2.2,0,4.3-0.8,5.8-2.4l10.3-10.3c3.6-3.6,10.6-5.9,15.6-5.1l14.4,2.3c4.5,0.7,8.7-2.3,9.4-6.8
						l2.3-14.4c0.8-5,5.1-10.9,9.6-13.2l13-6.6c4-2,5.6-7,3.6-11l-6.6-13c-2.3-4.5-2.3-11.9,0-16.4l6.6-13c1-1.9,1.2-4.2,0.5-6.3
						c-0.7-2.1-2.1-3.8-4.1-4.8l-13-6.6c-4.5-2.3-8.8-8.2-9.6-13.2l-2.3-14.4c-0.3-2.2-1.5-4.1-3.3-5.3c-1.8-1.3-3.9-1.8-6.1-1.5
						L445,179c-5,0.8-12-1.5-15.6-5.1l-10.3-10.3c-1.5-1.5-3.6-2.4-5.8-2.4c-2.2,0-4.3,0.8-5.8,2.4l-10.3,10.3
						c-3.6,3.6-10.6,5.8-15.6,5.1l-14.4-2.3c-4.5-0.7-8.7,2.4-9.4,6.8l-2.3,14.4c-0.8,5-5.1,10.9-9.6,13.2l-13,6.6
						c-1.9,1-3.4,2.7-4.1,4.8c-0.7,2.1-0.5,4.3,0.5,6.3l6.6,13c2.3,4.5,2.3,11.9,0,16.4l-6.6,13c-1,1.9-1.2,4.2-0.5,6.2
						c0.7,2.1,2.1,3.8,4.1,4.8l13,6.6c4.5,2.3,8.8,8.2,9.6,13.2l2.3,14.4c0.7,4.5,4.9,7.5,9.4,6.8l14.4-2.3
						C382.3,320.9,383,320.9,383.8,320.9z"/>
				</g>
				<g>
					<path class="st14" d="M416.5,332.9c-2.7,0-5.4-1-7.6-3l-6.5-5.9c-4.2-3.8-12.1-6-17.7-4.9l-8.6,1.8c-2.9,0.6-5.9,0-8.5-1.7
						c-2.5-1.7-4.2-4.2-4.8-7.1l-1.8-8.6c-1.1-5.6-6.3-12-11.4-14.3l-8-3.6c-2.7-1.2-4.8-3.5-5.9-6.3c-1.1-2.8-1-5.9,0.3-8.6l3.6-8
						c2.3-5.2,2-13.4-0.8-18.3l-4.3-7.7c-1.5-2.6-1.9-5.6-1-8.6c0.8-2.9,2.7-5.3,5.3-6.8l7.7-4.3c4.9-2.8,9.5-9.7,10.1-15.3l1-8.8
						c0.3-3,1.8-5.7,4.2-7.5c2.4-1.9,5.3-2.7,8.3-2.4l8.8,1c5.7,0.6,13.3-2.3,17.2-6.4l5.9-6.5c4.2-4.6,11.4-4.9,15.9-0.7l6.5,5.9
						c4.2,3.8,12.1,6,17.7,4.9l8.6-1.8c6.1-1.2,12.1,2.7,13.3,8.8l1.8,8.6c1.1,5.6,6.3,12,11.4,14.3l8,3.7c5.7,2.6,8.2,9.3,5.6,14.9
						l-3.6,8c-2.4,5.2-2,13.4,0.8,18.3l0,0l4.3,7.7c1.5,2.6,1.9,5.7,1,8.6c-0.8,2.9-2.7,5.3-5.3,6.8l-7.7,4.3
						c-4.9,2.8-9.5,9.7-10.1,15.3l-1,8.8c-0.3,3-1.8,5.7-4.2,7.5c-2.4,1.9-5.3,2.7-8.3,2.4l-8.8-1c-5.6-0.6-13.3,2.3-17.2,6.4
						l-5.9,6.5C422.6,331.6,419.6,332.9,416.5,332.9z M387.9,317.5c5.4,0,11.8,2.2,15.4,5.5l6.5,5.9c4.1,3.7,10.4,3.4,14.1-0.6
						l5.9-6.5c4.1-4.5,12.3-7.5,18.3-6.9l8.8,1c2.6,0.3,5.2-0.5,7.3-2.1c2.1-1.7,3.4-4,3.7-6.7l1-8.8c0.7-6,5.5-13.3,10.8-16.3
						l7.7-4.3c2.3-1.3,4-3.4,4.7-6c0.7-2.6,0.4-5.3-0.9-7.6l-4.3-7.7l0,0c-3-5.3-3.4-14-0.9-19.5l3.6-8c2.3-5,0.1-10.9-4.9-13.2
						l-8-3.6c-5.5-2.5-11-9.4-12.2-15.3l-1.8-8.6c-1.1-5.4-6.4-8.9-11.8-7.8l-8.6,1.8c-5.9,1.2-14.4-1.1-18.8-5.2l-6.5-5.9
						c-4.1-3.7-10.4-3.4-14.1,0.6l-5.9,6.5c-4.1,4.5-12.3,7.5-18.3,6.9l-8.8-1c-2.6-0.3-5.2,0.5-7.3,2.1c-2.1,1.7-3.4,4-3.7,6.7
						l-1,8.8c-0.7,6-5.5,13.3-10.8,16.3l-7.7,4.3c-2.3,1.3-4,3.4-4.7,6c-0.7,2.6-0.4,5.3,0.9,7.6l4.3,7.7c3,5.3,3.4,14,0.9,19.5
						l-3.6,8c-2.3,5-0.1,10.9,4.9,13.2l8,3.6c5.5,2.5,11,9.4,12.2,15.3l1.8,8.6c0.5,2.6,2.1,4.8,4.3,6.3c2.2,1.5,4.9,2,7.5,1.5
						l8.6-1.8C385.5,317.6,386.7,317.5,387.9,317.5z"/>
				</g>
				<g>
					<path class="st11" d="M419.4,325.7c-2.9,0-5.9-1-8.3-3l-2.4-2c-5.1-4.2-14.5-6.3-21-4.7l-3,0.8c-7,1.8-14.1-2.4-15.9-9.4
						l-0.8-3c-1.7-6.4-8.1-13.7-14.2-16.1l-2.9-1.1c-3.2-1.3-5.8-3.7-7.2-6.9c-1.4-3.2-1.5-6.8-0.2-10l1.1-2.9
						c2.4-6.2,1.5-15.8-2.1-21.4l-1.7-2.6c-1.9-2.9-2.5-6.4-1.7-9.8c0.8-3.4,2.8-6.3,5.7-8.2l2.6-1.7c5.6-3.6,10.5-11.9,10.9-18.5
						l0.2-3.1c0.2-3.5,1.8-6.6,4.4-9c2.6-2.3,6-3.5,9.4-3.3l3.1,0.2c6.6,0.4,15.5-3.4,19.7-8.6l2-2.4c2.2-2.7,5.3-4.3,8.8-4.7
						c3.5-0.3,6.9,0.7,9.6,2.9l2.4,2c5.1,4.2,14.6,6.3,21,4.7l3-0.8c7-1.8,14.1,2.4,15.9,9.4l0.8,3c1.7,6.4,8.1,13.7,14.2,16.1
						l2.9,1.1c6.7,2.6,10,10.2,7.4,16.9l-1.1,2.9c-2.4,6.2-1.5,15.8,2.1,21.4l1.7,2.6c3.9,6.1,2.1,14.2-4,18l-2.6,1.7
						c-5.6,3.6-10.5,11.9-10.9,18.5l-0.2,3.1c-0.2,3.5-1.8,6.7-4.4,9c-2.6,2.3-6,3.5-9.4,3.3l-3.1-0.2c-6.6-0.4-15.5,3.4-19.7,8.6
						l-2,2.4C426.9,324.1,423.1,325.7,419.4,325.7z M392.5,314.2c6,0,12.8,2.1,17,5.5l2.4,2c5,4.1,12.4,3.4,16.5-1.6l2-2.4
						c4.5-5.4,13.8-9.5,20.8-9l3.1,0.2c3.1,0.2,6.1-0.9,8.5-2.9c2.4-2.1,3.8-5,3.9-8.1l0.2-3.1c0.4-7,5.6-15.8,11.5-19.5l2.6-1.7
						c5.5-3.5,7.1-10.7,3.6-16.2l-1.7-2.6c-3.8-5.9-4.7-16.1-2.2-22.6l1.1-2.9c2.4-6-0.6-12.9-6.6-15.2l-2.9-1.1
						c-6.5-2.6-13.3-10.2-15-17l-0.8-3c-1.6-6.3-8-10.1-14.3-8.4l-3,0.8c-6.8,1.8-16.7-0.4-22.1-4.9l-2.4-2c-2.4-2-5.5-2.9-8.6-2.6
						c-3.1,0.3-6,1.8-7.9,4.2l-2,2.4c-4.5,5.4-13.8,9.5-20.8,9l-3.1-0.2c-3.1-0.2-6.1,0.8-8.5,2.9c-2.4,2.1-3.8,4.9-4,8.1l-0.2,3.1
						c-0.4,7-5.6,15.8-11.5,19.5l-2.6,1.7c-2.6,1.7-4.5,4.3-5.1,7.4c-0.7,3.1-0.1,6.2,1.5,8.8l1.7,2.6c3.8,5.9,4.7,16.1,2.2,22.6
						l-1.1,2.9c-1.1,2.9-1.1,6.1,0.2,9c1.3,2.9,3.5,5.1,6.5,6.3l2.9,1.1c6.5,2.6,13.3,10.2,15,17l0.8,3c1.6,6.3,8,10.1,14.3,8.4
						l3-0.8C388.9,314.4,390.7,314.2,392.5,314.2z"/>
				</g>
				<g>
					<path class="st11" d="M422,319.1c-2.9,0-5.6-0.9-7.9-2.6c-5.6-4.1-15.5-5.7-22.1-3.5c-7.1,2.3-14.8-1.6-17.1-8.7
						c-2.1-6.6-9.2-13.7-15.8-15.9c-3.4-1.1-6.2-3.5-7.9-6.8c-1.6-3.2-1.9-6.9-0.8-10.3c2.2-6.6,0.6-16.5-3.5-22.2
						c-2.1-2.9-3-6.5-2.4-10.1c0.6-3.6,2.5-6.7,5.4-8.9c5.6-4.1,10.2-13,10.2-20c0-7.5,6.1-13.6,13.6-13.6c0,0,0,0,0,0
						c6.9,0,15.9-4.6,20-10.2c2.1-2.9,5.3-4.8,8.9-5.4c3.6-0.6,7.2,0.3,10.1,2.4c5.6,4.1,15.5,5.7,22.1,3.5
						c7.1-2.3,14.8,1.6,17.1,8.7c2.1,6.6,9.2,13.7,15.8,15.9c7.1,2.3,11,10,8.7,17.1c-2.2,6.6-0.6,16.5,3.5,22.1l0,0
						c4.4,6.1,3,14.6-3,18.9c-5.6,4.1-10.2,13-10.2,20c0,7.5-6.1,13.6-13.6,13.6c0,0,0,0,0,0c-6.9,0-15.9,4.6-20,10.2
						c-2.1,2.9-5.3,4.8-8.9,5.4C423.5,319,422.7,319.1,422,319.1z M398.6,310.7c5.8,0,12.2,1.7,16.3,4.7c2.6,1.9,5.9,2.7,9.1,2.2
						c3.2-0.5,6.1-2.2,8-4.9c4.3-5.9,13.7-10.7,21-10.7c0,0,0,0,0,0c6.8,0,12.3-5.5,12.3-12.2c0-7.3,4.8-16.7,10.7-21
						c5.5-4,6.7-11.6,2.7-17.1c-4.3-5.9-5.9-16.4-3.7-23.3c2.1-6.4-1.4-13.4-7.9-15.5c-6.9-2.3-14.4-9.8-16.7-16.7
						c-2.1-6.4-9-10-15.4-7.9c-7,2.2-17.4,0.6-23.3-3.7c-2.6-1.9-5.9-2.7-9.1-2.2c-3.2,0.5-6.1,2.2-8,4.9
						c-4.3,5.9-13.7,10.7-21,10.7c0,0,0,0,0,0c-6.8,0-12.3,5.5-12.3,12.2c0,7.3-4.8,16.7-10.7,21c-2.6,1.9-4.4,4.8-4.9,8
						c-0.5,3.2,0.3,6.5,2.2,9.1c4.3,5.9,5.9,16.4,3.7,23.3c-1,3.1-0.8,6.4,0.7,9.3c1.5,2.9,4,5.1,7.1,6.1
						c6.9,2.3,14.4,9.8,16.7,16.7c2.1,6.4,9,10,15.4,7.9C393.6,311,396.1,310.7,398.6,310.7z"/>
				</g>
				<g>
					<path class="st12" d="M424.9,313.2c-2.3,0-4.6-0.7-6.6-1.9c-5.4-3.4-14.7-4.2-20.6-1.8c-3.1,1.3-6.5,1.2-9.6-0.1
						c-3.1-1.3-5.5-3.8-6.7-6.9c-2.4-5.9-9.4-12-15.6-13.6c-3.2-0.8-6-2.8-7.7-5.7c-1.7-2.9-2.2-6.3-1.4-9.5
						c1.6-6.2-0.5-15.2-4.6-20.1c-4.5-5.3-3.7-13.3,1.6-17.7c4.9-4.1,8.5-12.6,8.1-19c-0.5-6.9,4.8-12.9,11.7-13.4
						c6.4-0.4,14.3-5.2,17.7-10.6c3.7-5.9,11.5-7.7,17.3-4c5.4,3.4,14.7,4.2,20.6,1.8c3.1-1.3,6.5-1.2,9.6,0.1
						c3.1,1.3,5.5,3.8,6.8,6.9c2.4,5.9,9.4,12,15.6,13.6c6.7,1.7,10.8,8.5,9.2,15.3c-1.6,6.2,0.5,15.2,4.6,20.1l0,0
						c4.5,5.3,3.7,13.3-1.6,17.7c-4.9,4.1-8.5,12.6-8.1,19c0.2,3.3-0.9,6.6-3.1,9.1c-2.2,2.5-5.3,4.1-8.6,4.3
						c-6.4,0.4-14.3,5.2-17.7,10.6c-1.8,2.8-4.6,4.8-7.8,5.6C426.8,313.1,425.9,313.2,424.9,313.2z M405.6,306.8
						c4.8,0,9.8,1.2,13.4,3.4c2.5,1.6,5.6,2.1,8.5,1.4c2.9-0.7,5.4-2.4,7-5c3.6-5.7,12-10.8,18.7-11.2c3-0.2,5.7-1.6,7.7-3.8
						c2-2.3,3-5.2,2.8-8.2c-0.5-6.7,3.4-15.8,8.6-20.1c4.8-4,5.4-11.1,1.4-15.9l0,0c-4.3-5.2-6.5-14.7-4.9-21.3
						c1.5-6-2.2-12.2-8.2-13.7c-6.6-1.6-14-8.1-16.5-14.4c-1.1-2.8-3.3-5-6-6.1c-2.8-1.2-5.8-1.2-8.6-0.1c-6.3,2.5-16,1.7-21.8-1.9
						c-5.3-3.3-12.2-1.7-15.5,3.6c-3.6,5.7-12,10.8-18.7,11.2c-6.2,0.4-10.9,5.8-10.5,12c0.5,6.7-3.4,15.8-8.6,20.1
						c-4.8,4-5.4,11.1-1.4,15.9c4.3,5.2,6.5,14.7,4.9,21.3c-0.7,2.9-0.3,5.9,1.3,8.5c1.6,2.6,4,4.4,6.9,5.1
						c6.6,1.6,14,8.1,16.5,14.4c1.1,2.8,3.3,5,6,6.2c2.8,1.2,5.8,1.2,8.6,0.1C399.6,307.3,402.6,306.8,405.6,306.8z"/>
				</g>
			</g>
		</g>
	</g>
</g>
</svg>
